<svg xmlns="http://www.w3.org/2000/svg" viewBox="0 0 409.12 409.33">
  <defs>
    <style>
      .cls-1{fill:rgba(45, 37, 37, 0.233);
  stroke-dasharray: 100;
  animation: dash 5s linear;}
@keyframes dash {
  to {
    stroke-dashoffset: 1000;
  }
}
    </style>
  </defs>
  <g id="Layer_2" data-name="Layer 2">
    <g id="Layer_1-2" data-name="Layer 1">
      <path class="cls-1" d="M186.51 408.91a.58.58 0 0 1-.18 0 .42.42 0 0 1-.21-.56c.41-.94.83-1.87 1.26-2.8.94-2.08 1.92-4.23 2.79-6.38l.65-1.56a64.54 64.54 0 0 0 3-8.19 22.53 22.53 0 0 0-.57-12.59c-.73-2.3-1.64-4.59-2.51-6.81-.31-.79-.62-1.57-.92-2.35-.22-.57-.47-1.12-.71-1.67-.32-.72-.65-1.47-.91-2.23a5.16 5.16 0 0 1-.09-4.15 4.89 4.89 0 0 1 3.23-2.25 36.16 36.16 0 0 1 8.86-1.63 14.48 14.48 0 0 0 11.12-5.23l2.52-3c2.56-3.05 5.22-6.21 7.9-9.25 3-3.37 5.05-7.4 7-11.3l.86-1.67c2.38-4.61 4.63-5.66 9.63-4.48a31.46 31.46 0 0 0 21.34-2.07c4.93-2.38 6.8-6.83 5.27-12.53-1.35-5-4.75-8.4-10.1-10.1-1.55-.49-3.14-.93-4.69-1.35-2.36-.65-4.81-1.31-7.14-2.2-7.51-2.84-12.93-7.63-16.13-14.25a51.07 51.07 0 0 1-2.06-5.2c-.4-1.12-.81-2.27-1.26-3.37-3.35-8.2-8.85-13.13-16.83-15.07-2.1-.51-4.9 0-5.85 3a35.34 35.34 0 0 0-1.39 11.51 14.57 14.57 0 0 0 .92 5.78 5.8 5.8 0 0 0 4.08 3.59c1.7.45 3.41.87 5.12 1.29 2.07.51 4.2 1 6.3 1.61s4.25 1.28 5.74 3.17c2 2.57 1.46 6.22-1.34 8.87a38.19 38.19 0 0 1-5.94 4.32l-2 1.3c-.89.59-1.82 1.14-2.73 1.67s-2 1.18-3 1.82c-2.58 1.75-4.07 4.51-4.68 8.68-.27 1.78-.39 3.63-.5 5.41-.1 1.5-.2 3.05-.39 4.57-.46 3.71-1.83 6.48-7 7.9-1.32.37-2.65.71-4 1.06-1.74.46-3.47.92-5.2 1.4-4.87 1.38-8.17 3.85-10.09 7.56a40.48 40.48 0 0 0-2.09 5.36c-.32 1-.65 2-1 2.93a7.34 7.34 0 0 1-6.9 4.92c-4.08.19-8.22.26-12.24.32-2.45 0-4.9.08-7.35.15a6.38 6.38 0 0 1-4.76-1.61 6.71 6.71 0 0 1-1.83-4.94c0-5.86 1.8-9.72 5.79-12.14a12.17 12.17 0 0 1 5.46-1.69c7.74-.45 12.38-5.58 12.42-13.72a15.13 15.13 0 0 0-.62-5.13c-1.24-3.42-5.56-5.64-9.45-4.85l-2.73.53c-2.32.45-4.72.91-7 1.54a11 11 0 0 1-10.76-2.65c-2.39-2.19-4.61-4.63-6.75-7-1-1.06-1.93-2.13-2.92-3.17s-2-2.17-3-3.27c-2.37-2.58-4.82-5.26-7.42-7.66a15 15 0 0 0-9.48-3.62c-1.51-.1-3-.19-4.54-.27-2.86-.15-5.82-.32-8.72-.58-6.61-.61-11.38-1.95-15.46-4.37a24.85 24.85 0 0 1-7.93-8c-1.81-2.7-3.54-5.1-5.29-7.32-4.56-5.82-11.11-7.82-16.28-8.94h-.23a34.74 34.74 0 0 1-6.6-1.87c-3-1.29-4.34-4-5.65-6.65l-.53-1a23.49 23.49 0 0 0-3-4.79c-1.85-2.09-4.1-2.35-6.52-.74a30.64 30.64 0 0 0-3.77 3.16l-.48.44c-3.34 3.12-6.72 6-11.21 7.2a36.69 36.69 0 0 1-4.24.78l-1.91.28a.41.41 0 0 1-.49-.35.42.42 0 0 1 .34-.49l1.94-.29a33.87 33.87 0 0 0 4.14-.75c4.3-1.14 7.59-4 10.85-7l.48-.44a30.36 30.36 0 0 1 3.88-3.25c2.78-1.85 5.49-1.53 7.63.89a24.46 24.46 0 0 1 3.13 5l.53 1.05c1.3 2.6 2.53 5.07 5.23 6.24a34.35 34.35 0 0 0 6.39 1.79l.24.05c5.32 1.13 12 3.19 16.75 9.17 1.77 2.23 3.51 4.64 5.32 7.37a24.12 24.12 0 0 0 7.66 7.76c4 2.35 8.63 3.66 15.1 4.25 2.89.27 5.84.43 8.69.58l4.56.27a15.79 15.79 0 0 1 10 3.84c2.64 2.43 5.1 5.12 7.48 7.72q1.5 1.64 3 3.26c1 1 2 2.11 2.93 3.18 2.13 2.34 4.33 4.77 6.69 6.94a10 10 0 0 0 10 2.45c2.34-.64 4.75-1.11 7.09-1.55.91-.18 1.82-.35 2.72-.54 4.28-.87 9 1.6 10.42 5.4a16 16 0 0 1 .67 5.42c0 8.52-5.11 14.1-13.22 14.57a11.24 11.24 0 0 0-5.07 1.57c-3.71 2.25-5.42 5.87-5.38 11.4a5.88 5.88 0 0 0 1.57 4.33 5.6 5.6 0 0 0 4.14 1.35c2.45-.07 4.9-.11 7.36-.15 4-.06 8.15-.13 12.21-.32a6.45 6.45 0 0 0 6.15-4.37c.36-.95.68-1.92 1-2.89a37.7 37.7 0 0 1 2.14-5.48c2-3.89 5.57-6.57 10.61-8 1.73-.49 3.47-.95 5.21-1.41 1.32-.35 2.65-.69 4-1.06 4.75-1.3 6-3.71 6.39-7.19.19-1.49.29-3 .39-4.52.11-1.79.24-3.66.51-5.47.65-4.43 2.25-7.37 5-9.26 1-.66 2-1.27 3-1.85s1.82-1.07 2.7-1.65c.66-.45 1.35-.88 2-1.31a37.35 37.35 0 0 0 5.8-4.21c2.48-2.35 3-5.52 1.26-7.73-1.32-1.69-3.26-2.33-5.3-2.88s-4.21-1.1-6.27-1.6q-2.58-.63-5.14-1.3a6.6 6.6 0 0 1-4.64-4.07 15.27 15.27 0 0 1-1-6.11 36.1 36.1 0 0 1 1.52-11.8c1.06-3.36 4.21-4.2 6.86-3.56 8.15 2 14 7.23 17.42 15.58.45 1.12.87 2.28 1.27 3.4a52.39 52.39 0 0 0 2 5.12c3.1 6.41 8.37 11.07 15.66 13.83 2.29.87 4.72 1.53 7.07 2.17 1.55.42 3.16.86 4.72 1.36 5.64 1.79 9.23 5.39 10.66 10.69 1.65 6.14-.38 10.94-5.72 13.51A32.18 32.18 0 0 1 239 321.6c-4.62-1.08-6.48-.21-8.68 4l-.86 1.66c-2 3.95-4.1 8-7.16 11.49-2.68 3-5.33 6.18-7.89 9.23l-2.52 3a15.3 15.3 0 0 1-11.74 5.53 35 35 0 0 0-8.65 1.6 4.15 4.15 0 0 0-2.72 1.82 4.46 4.46 0 0 0 .14 3.48c.26.73.58 1.46.89 2.16s.5 1.14.72 1.71c.3.78.61 1.56.92 2.35.88 2.23 1.79 4.54 2.53 6.86a23.36 23.36 0 0 1 .58 13.06 64.06 64.06 0 0 1-3 8.3l-.64 1.56c-.88 2.16-1.86 4.32-2.81 6.41l-1.26 2.79a.42.42 0 0 1-.34.3z"/>
      <path class="cls-1" d="M179.61 323.63h-.7c-5.4-.58-6-3.25-6.77-6.93-.08-.37-.16-.75-.25-1.15a50.77 50.77 0 0 1-.94-7c-.11-1.26-.23-2.55-.39-3.81a18 18 0 0 0-.79-3.18 2.36 2.36 0 0 0-2.8-1.75c-1.66.19-3.31.39-5 .6-2.29.28-4.58.56-6.88.81l-1.48.17c-6.23.72-12.67 1.45-18.56-2.29a49.64 49.64 0 0 1-7-5.16c-2-1.79-3.92-3.69-5.8-5.53s-3.88-3.8-5.89-5.61c-2.51-2.26-5.86-3.6-10.56-4.2l-1.43-.19c-6.37-.81-13-1.65-19.23-3.56-6.71-2.05-11.74-5.55-15.36-10.71-2.68-3.82-6.48-8.59-12.07-11.48-2.87-1.49-5.87-2.78-8.94-4.08a18.11 18.11 0 0 1-9.34-9.23 82.93 82.93 0 0 0-10-16c-.5-.63-1.07-1.24-1.62-1.82l-.19-.2c-2.28-2.43-4.68-2.66-7.34-.71a36.12 36.12 0 0 0-5.44 5.38l-.18.19a26.79 26.79 0 0 0-2 2.63 32.6 32.6 0 0 1-2 2.63c-3.31 3.79-6.39 5.86-10 6.68a.43.43 0 1 1-.19-.83c3.43-.78 6.37-2.76 9.54-6.41a29.85 29.85 0 0 0 1.99-2.56 28.85 28.85 0 0 1 2-2.7l.17-.2a36.8 36.8 0 0 1 5.62-5.54c3-2.23 5.88-1.95 8.47.81l.19.19c.56.6 1.14 1.22 1.67 1.88a84.28 84.28 0 0 1 10.11 16.16 17.21 17.21 0 0 0 8.9 8.81c3.09 1.31 6.1 2.61 9 4.11 5.75 3 9.64 7.85 12.38 11.75 3.5 5 8.38 8.4 14.91 10.38 6.2 1.89 12.75 2.73 19.09 3.54l1.43.19c4.87.62 8.37 2 11 4.4 2 1.83 4 3.77 5.91 5.64s3.81 3.73 5.78 5.51a49.31 49.31 0 0 0 6.86 5.07c5.64 3.59 11.93 2.86 18 2.17l1.49-.17c2.29-.26 4.58-.54 6.86-.82l5-.6a3.21 3.21 0 0 1 3.7 2.33 17.54 17.54 0 0 1 .83 3.34c.17 1.28.28 2.58.39 3.84a53.6 53.6 0 0 0 .93 6.91c.09.4.17.79.25 1.16.77 3.58 1.24 5.75 6 6.26a10.68 10.68 0 0 0 2.75-.19c5.37-.82 8.57-3.33 9.8-7.65a17.39 17.39 0 0 0 .33-7.57c-.77-4.63-2.62-7.69-5.83-9.64a41.67 41.67 0 0 0-7.26-3.44c-3.47-1.29-3.28-3.48-2.63-5.45a17.27 17.27 0 0 1 2.73-5.41c1.67-2.1 3.52-4.1 5.31-6 .81-.86 1.61-1.73 2.4-2.6a17.54 17.54 0 0 0 4.74-11.8c0-4.56-2.32-8.09-7-10.48-4.15-2.13-8.25-4.5-12.22-6.79l-3.73-2.15a47.42 47.42 0 0 0-13.55-5.69h-.17a65.87 65.87 0 0 1-8.65-2.25c-5.58-2-8.42-6.62-11.06-11.57q-2.9-5.51-5.9-10.96c-1.16-2.14-2.32-4.27-3.47-6.41-2.83-5.24-5.69-10.87-6.92-17.06-1-4.95-.26-8.62 2.28-11.57.81-.94 1.63-1.88 2.46-2.81 1.76-2 3.58-4.06 5.24-6.18A43.4 43.4 0 0 0 134 161a7.64 7.64 0 0 0-1.08-8.64 56.6 56.6 0 0 0-5.66-5.47c-2.46-2.11-5.16-4.68-6.06-8.62s-.29-8.33 2-13.09a79.39 79.39 0 0 1 4.84-8.29c.68-1.07 1.37-2.13 2-3.21 4.88-8 4.72-13.27-.61-20.32-1.41-1.86-3-3.65-4.49-5.39-.74-.85-1.48-1.7-2.21-2.57-3.85-4.56-5.39-9.07-4.7-13.78a54.76 54.76 0 0 1 2-8.14c.25-.85.51-1.69.75-2.54 1.25-4.31 2.25-9 1.19-13.66l-.51-2.21a137.79 137.79 0 0 1-2.87-15.17c-.65-5.85.57-11.29 2-16.29.86-3 1.79-6.06 2.69-9 .39-1.29.79-2.58 1.18-3.86a.41.41 0 0 1 .54-.31.43.43 0 0 1 .28.53c-.39 1.29-.78 2.58-1.18 3.87-.9 2.94-1.83 6-2.68 9-1.4 4.92-2.6 10.26-2 16a134.56 134.56 0 0 0 2.85 15.07l.51 2.21c1.1 4.9.08 9.67-1.2 14.09-.24.85-.5 1.7-.76 2.55a54.26 54.26 0 0 0-2 8c-.65 4.46.83 8.75 4.51 13.12.73.86 1.47 1.7 2.21 2.55 1.52 1.75 3.09 3.56 4.51 5.44 5.53 7.3 5.71 13.06.67 21.27-.67 1.09-1.36 2.16-2 3.23a76.28 76.28 0 0 0-4.79 8.2c-2.21 4.64-2.83 8.63-1.92 12.53.76 3.32 2.78 5.59 5.78 8.16a59.59 59.59 0 0 1 5.75 5.55 8.48 8.48 0 0 1 1.21 9.57 43.61 43.61 0 0 1-5.49 8.26c-1.67 2.15-3.5 4.22-5.27 6.22-.83.93-1.65 1.86-2.46 2.8-2.35 2.74-3 6.18-2.09 10.85 1.21 6.08 4 11.65 6.84 16.83l3.47 6.4q3 5.46 5.91 11c2.56 4.8 5.3 9.27 10.6 11.17a66.12 66.12 0 0 0 8.54 2.22h.17a48.19 48.19 0 0 1 13.79 5.78l3.74 2.15c4 2.29 8.05 4.65 12.18 6.77 5 2.56 7.47 6.34 7.44 11.25a18.34 18.34 0 0 1-4.9 12.31c-.79.88-1.6 1.75-2.4 2.62-1.79 1.92-3.63 3.91-5.28 6a16.36 16.36 0 0 0-2.58 5.15c-.67 2-.54 3.4 2.12 4.39a43 43 0 0 1 7.41 3.5c3.43 2.09 5.4 5.34 6.22 10.23a18.15 18.15 0 0 1-.35 7.94c-1.33 4.68-4.76 7.38-10.49 8.26a14.91 14.91 0 0 1-2.26.15z"/>
      <path class="cls-1" d="M148.45 295.19a21.94 21.94 0 0 1-6.89-1.16c-7.81-2.58-13.43-8-18.35-13.49a27.2 27.2 0 0 0-3.64-3.18l-.51-.4c-3.23-2.53-7.15-3-11.57-3.24a71.67 71.67 0 0 1-19.61-4 30.83 30.83 0 0 1-14.09-9.83c-3-3.67-6.73-7.77-11.7-10.23-2.68-1.33-5.36-2.77-8-4.16l-.64-.34c-2.55-1.36-5.43-3.06-7.26-6L44.88 237c-1.21-1.89-2.45-3.85-3.54-5.86a86.44 86.44 0 0 1-7.28-17.08A123.73 123.73 0 0 0 30 202.34c-.46-1.16-.73-1.4-.85-1.43s-.47 0-1.5.64a68 68 0 0 0-7.26 5.45c-2.09 1.76-4.17 3.6-6.19 5.38-2.25 2-4.57 4-6.92 6a33.76 33.76 0 0 1-4.1 2.8q-.95.57-1.86 1.17a.85.85 0 0 1-1.18-.25.84.84 0 0 1 .24-1.17c.63-.41 1.27-.81 1.91-1.2a32.09 32.09 0 0 0 3.9-2.73c2.33-1.95 4.64-4 6.88-6 2-1.79 4.12-3.64 6.23-5.41a69.33 69.33 0 0 1 7.44-5.55c1.12-.71 2-1.12 2.93-.83s1.42 1.18 1.91 2.43c1.7 4.27 3 8.17 4.12 11.9a83.65 83.65 0 0 0 7.14 16.74c1 2 2.28 3.89 3.47 5.75l1.37 2.17c1.62 2.6 4.15 4.1 6.62 5.41l.64.34c2.58 1.39 5.25 2.81 7.91 4.13 5.26 2.62 9.15 6.87 12.26 10.69a29.07 29.07 0 0 0 13.34 9.29A69.74 69.74 0 0 0 107.6 272c4.7.3 8.89.77 12.5 3.6l.51.4a28.15 28.15 0 0 1 3.87 3.38c4.76 5.31 10.18 10.56 17.61 13 8.21 2.72 15.77.17 20.22-6.81 1.22-1.9 2.39-3.89 3.53-5.81.66-1.12 1.32-2.23 2-3.34a23.94 23.94 0 0 1 7-7.43 16.3 16.3 0 0 0 2.71-2.51 4.34 4.34 0 0 0 1.26-3.44 4.69 4.69 0 0 0-2.12-3.25c-3.32-2.33-7.29-3.37-11.12-4.38l-.46-.12a185.7 185.7 0 0 1-22.14-7.8c-5.53-2.23-8.91-5.38-10.63-9.92a67.93 67.93 0 0 1-2.48-7.85 95.09 95.09 0 0 0-9.53-23.25l-2.2-4c-3.07-5.56-6.26-11.32-9.2-17.08-2.81-5.52-2.17-10.44 1.93-14.64a19.13 19.13 0 0 0 1.69-2.1l.45-.65c2.45-3.26 2.29-5.86-.51-8.16a75.6 75.6 0 0 0-10.09-7c-1.62-1-2.65-1.28-3.35-1.1s-1.54 1.26-2.54 3a20.56 20.56 0 0 0-1.77 4.88c-1.38 5.1-4.25 9.22-9 13-4.29 3.33-8.41 7-12.39 10.64l-1.47 1.31a28.12 28.12 0 0 1-16 7.18l-3.64.41c-6.08.67-12.38 1.36-18.19 3.74-2.6 1.07-4.6.18-5.94-2.65s-2.54-5.8-3.72-8.82a40.21 40.21 0 0 0-11.78-16.93 69.1 69.1 0 0 1-12.46-14 .85.85 0 0 1 .21-1.18.86.86 0 0 1 1.19.21 67.14 67.14 0 0 0 12.15 13.66 41.83 41.83 0 0 1 12.23 17.55c1.17 3 2.33 5.9 3.67 8.71 1.17 2.46 2.5 2.32 3.76 1.81 6-2.47 12.46-3.18 18.66-3.86 1.2-.13 2.41-.26 3.61-.41a26.52 26.52 0 0 0 15.05-6.75l1.47-1.32c4-3.61 8.15-7.35 12.48-10.71 4.5-3.5 7.18-7.32 8.45-12.05a21.48 21.48 0 0 1 2-5.29c1.09-1.89 2-3.38 3.57-3.78 1.2-.32 2.55 0 4.65 1.27a77.1 77.1 0 0 1 10.31 7.21c2.45 2 4.57 5.46.79 10.49l-.48.65A20.73 20.73 0 0 1 112 172c-3.57 3.67-4.11 7.81-1.62 12.68 2.92 5.73 6.1 11.48 9.17 17l2.2 4a97.21 97.21 0 0 1 9.69 23.66 64.68 64.68 0 0 0 2.42 7.66c1.54 4.06 4.62 6.9 9.68 8.94a182.94 182.94 0 0 0 21.93 7.73l.46.12c4 1.05 8.1 2.13 11.67 4.64a6.36 6.36 0 0 1 2.83 4.45 6.1 6.1 0 0 1-1.69 4.77 17.55 17.55 0 0 1-3 2.77 22 22 0 0 0-6.47 6.91c-.67 1.1-1.32 2.21-2 3.32-1.14 1.94-2.32 3.94-3.55 5.87a17.74 17.74 0 0 1-15.27 8.67zM194.26 408.91a.35.35 0 0 1-.14 0 .42.42 0 0 1-.26-.54c.17-.48.33-1 .49-1.46.35-1.07.72-2.18 1.16-3.25.62-1.48 1.33-2.93 2-4.34a37.31 37.31 0 0 0 3.45-8.85c.31-1.55.6-3.1.89-4.65s.62-3.29 1-4.94c.67-3.28 1.88-6.93 5.69-9.08A26.33 26.33 0 0 0 219 361c2.37-4.5 4.79-8.84 8.18-12.56 2.27-2.49 4.39-5 6.93-7.94a41.89 41.89 0 0 1 15.28-11.5c2.47-1.06 5-2.06 7.48-3 1.59-.63 3.18-1.25 4.76-1.9 3.79-1.55 7.06-3.14 8.52-6.9a16 16 0 0 0 .87-7.76c-.89-8.64-4.83-14.54-12-18.05a48 48 0 0 1-8.62-5 101.06 101.06 0 0 1-20.56-21.63 54.87 54.87 0 0 0-6.92-8.45 87.84 87.84 0 0 0-10.72-8.36c-5.55-3.78-6.81-9.52-7.3-14.63-.11-1.18-.21-2.36-.31-3.54-.24-2.85-.49-5.81-1-8.67-.19-1.17-.41-2.34-.63-3.5-.79-4.18-1.61-8.5-1-13a21.13 21.13 0 0 1 2.56-8.1c3.41-5.67 9.27-6.67 14-6.9 3.36-.17 6.77-.22 10.07-.27 3.12 0 6.35-.09 9.51-.23 3.82-.18 6.64-2.71 7.54-6.77a22.34 22.34 0 0 0-.23-11.19c-.79-2.69-1.77-5.38-2.73-8-.63-1.73-1.29-3.52-1.88-5.29a16.62 16.62 0 0 1 .06-11.68A49 49 0 0 1 244 140c.5-.89 1-1.78 1.49-2.68.38-.7.79-1.39 1.21-2.08 1.33-2.2 2.59-4.28 2.61-6.9.06-5.82-2.51-11-7.86-15.74a119.67 119.67 0 0 0-10-7.73A97.48 97.48 0 0 1 219.07 95l-3.55-3.5a160.13 160.13 0 0 1-11.9-12.5c-4.65-5.65-7.6-12.46-10.45-19-.43-1-.87-2-1.31-3-2.61-6-5.56-12.26-10.35-17.3-5.91-6.22-8.57-13-8.13-20.72.13-2.24.44-4.56 1.84-6.31 2.35-2.94 4.9-5.79 7.37-8.55 1-1.11 2-2.22 3-3.35a.44.44 0 0 1 .6 0 .43.43 0 0 1 0 .6c-1 1.13-2 2.25-3 3.36-2.46 2.75-5 5.59-7.34 8.51-1.25 1.57-1.54 3.73-1.66 5.83-.42 7.48 2.16 14 7.9 20.08 4.91 5.11 7.91 11.41 10.55 17.42.44 1 .88 2 1.31 3 2.83 6.53 5.75 13.29 10.33 18.85a161.94 161.94 0 0 0 11.83 12.45l3.56 3.5a97.23 97.23 0 0 0 12.25 9.82A118.23 118.23 0 0 1 242 112c5.55 4.94 8.22 10.3 8.15 16.38 0 2.85-1.4 5.12-2.73 7.33-.41.67-.82 1.35-1.19 2-.48.91-1 1.8-1.5 2.7a48 48 0 0 0-3.1 6.06 15.74 15.74 0 0 0 0 11.1c.58 1.76 1.24 3.54 1.87 5.27 1 2.61 2 5.31 2.75 8a23.19 23.19 0 0 1 .24 11.61c-1 4.39-4.17 7.24-8.33 7.44-3.18.14-6.41.19-9.54.23-3.29 0-6.7.1-10 .26-4.8.25-10.13 1.2-13.32 6.49a20.53 20.53 0 0 0-2.44 7.79c-.6 4.32.21 8.57 1 12.68.23 1.17.45 2.35.64 3.53.48 2.89.72 5.86 1 8.73.1 1.18.19 2.35.31 3.53.49 5.16 1.68 10.44 6.93 14a87.73 87.73 0 0 1 10.82 8.44 54.74 54.74 0 0 1 7 8.58 100.1 100.1 0 0 0 20.39 21.45 48 48 0 0 0 8.47 4.88c7.51 3.64 11.61 9.77 12.53 18.72a17 17 0 0 1-.92 8.16c-1.59 4.07-5.17 5.81-9 7.38-1.59.65-3.18 1.27-4.77 1.9-2.45 1-5 2-7.45 3a40.35 40.35 0 0 0-15 11.29c-2.54 3-4.67 5.46-7 8-3.33 3.64-5.71 7.93-8.06 12.38a27.28 27.28 0 0 1-10.82 11.15c-3.51 2-4.61 5.26-5.28 8.51-.34 1.64-.64 3.29-.95 4.93s-.59 3.11-.9 4.66a38 38 0 0 1-3.51 9.05c-.69 1.4-1.4 2.84-2 4.3-.43 1-.79 2.13-1.15 3.19-.16.49-.32 1-.49 1.47a.43.43 0 0 1-.39.34z"/>
      <path class="cls-1" d="M275.87 121.49a14.1 14.1 0 0 1-9.42-3.67 30.83 30.83 0 0 1-5.77-6.61c-3.2-5-7.93-7.88-14.47-8.91-9.16-1.44-17.3-5.57-24.87-12.63a121.16 121.16 0 0 1-17-19c-5.34-7.6-8.73-13.75-11-19.93a70.93 70.93 0 0 0-7.74-15.2 32.66 32.66 0 0 1-3.68-6.63c-1.9-5.13-1.23-9.8 2-13.87 3-3.78 6.9-6.88 12.63-10a8.84 8.84 0 0 1 10 .8 18.87 18.87 0 0 1 5.45 6.85c.32.61.64 1.22 1 1.84a43.24 43.24 0 0 0 2.94 5.23c2.66 3.84 6.68 6.31 10.58 8.7l.28.17c6.23 3.82 14.13 9.24 20 17.22a26.93 26.93 0 0 0 6.43 6.37c3 2.06 5 2.08 8 .08a13.19 13.19 0 0 0 2.56-2 100.31 100.31 0 0 1 15.38-13.11c9.1-6.57 13.51-15.51 13.09-26.56-.08-2.18-.18-4.35-.27-6.52l-.23-3.24a.43.43 0 0 1 .41-.44.43.43 0 0 1 .44.4l.14 3.27c.09 2.18.19 4.35.27 6.53.43 11.35-4.1 20.53-13.44 27.28a98.8 98.8 0 0 0-15.25 13 14.63 14.63 0 0 1-2.72 2.09c-3.38 2.2-5.64 2.17-9-.09a28.14 28.14 0 0 1-6.61-6.56c-5.74-7.86-13.55-13.21-19.72-17l-.28-.17c-4-2.43-8.07-4.94-10.83-8.94a43.74 43.74 0 0 1-3-5.33c-.31-.61-.62-1.22-.94-1.83A18.17 18.17 0 0 0 206 6.5a8.06 8.06 0 0 0-9.1-.75c-5.62 3.11-9.44 6.14-12.37 9.83s-3.68 8.21-1.89 13.05a31.52 31.52 0 0 0 3.6 6.44 71.76 71.76 0 0 1 7.83 15.39c2.23 6.11 5.59 12.19 10.88 19.73a121 121 0 0 0 16.93 18.86c7.44 6.94 15.43 11 24.42 12.41 6.8 1.07 11.72 4.11 15 9.29a30.23 30.23 0 0 0 5.62 6.43c4.78 4.12 10.29 4.58 16.83 1.41 1.28-.63 2.55-1.28 3.83-1.93a69.52 69.52 0 0 1 12.57-5.4c3.79-1.07 7.69-1.94 11.47-2.78l1.4-.31c6.87-1.53 11.6-4.64 14.88-9.79 1.89-3 3.95-5.89 5.93-8.72s3.95-5.61 5.79-8.49A13.7 13.7 0 0 0 342 71.5c-.45-3-2.34-4.8-4.59-6.67-.63-.53-1.27-1.06-1.92-1.58-1.47-1.2-3-2.44-4.4-3.76-4.16-3.85-5.12-9.57-2.5-14.93a68.57 68.57 0 0 1 4.41-7.35l1.5-2.31a42 42 0 0 0 5.66-14.14 31.87 31.87 0 0 0-.4-12.89c-.33-1.59-.54-3.21-.75-4.79-.1-.72-.19-1.45-.3-2.17a.43.43 0 0 1 .36-.48.42.42 0 0 1 .48.36c.11.72.21 1.45.3 2.18.21 1.56.42 3.17.74 4.73a32.43 32.43 0 0 1 .4 13.23 42.73 42.73 0 0 1-5.78 14.43q-.74 1.16-1.5 2.31a67.48 67.48 0 0 0-4.33 7.26c-2.45 5-1.57 10.35 2.3 13.94 1.4 1.3 2.91 2.53 4.37 3.72.65.53 1.29 1 1.93 1.59 2.29 1.91 4.39 3.9 4.88 7.19a14.57 14.57 0 0 1-2.41 10.26c-1.86 2.89-3.87 5.75-5.81 8.52s-4 5.73-5.91 8.68c-3.42 5.36-8.31 8.59-15.41 10.17l-1.4.31c-3.77.84-7.66 1.7-11.43 2.77a69.72 69.72 0 0 0-12.42 5.34c-1.27.65-2.55 1.31-3.84 1.93a19.08 19.08 0 0 1-8.36 2.14zM333.84 390.7c-4.65 0-9.33-.14-13.89-.28l-3.29-.09a38.08 38.08 0 0 1-12.38-2.69 19.13 19.13 0 0 1-9-6.25 24.28 24.28 0 0 1-4.7-12.87c-.37-4.49-.25-8.23 1.56-11.87a23.49 23.49 0 0 1 11.27-10.94c5.35-2.53 10.88-4.92 16.22-7.23l4.59-2a61.6 61.6 0 0 0 13.58-7.5c4.69-3.66 9.72-8.37 11.43-15.49a59.47 59.47 0 0 0 1.06-6.5l.18-1.4a58.48 58.48 0 0 0-.61-19.44c-.53-2.55-1.12-5.12-1.7-7.61-.81-3.52-1.65-7.16-2.3-10.78-.9-5-.37-9.17 1.6-12.72 2.28-4.11 6-6.54 9.37-8.49a28.54 28.54 0 0 1 19.7-3.55c5.17.88 9.66 3.13 14.82 6.23A31.84 31.84 0 0 0 408.1 254h.17a.43.43 0 1 1 0 .85h-.18a32.7 32.7 0 0 1-17.19-4.94c-5.07-3.05-9.49-5.26-14.53-6.12a27.64 27.64 0 0 0-19.08 3.48c-3.24 1.9-6.88 4.25-9.06 8.17-1.87 3.38-2.36 7.36-1.5 12.16.64 3.6 1.48 7.23 2.29 10.74.58 2.49 1.17 5.07 1.7 7.63a59.63 59.63 0 0 1 .63 19.72l-.18 1.4a62.38 62.38 0 0 1-1.08 6.59c-1.78 7.38-6.93 12.21-11.74 16-4.29 3.35-9.15 5.59-13.76 7.61l-4.59 2c-5.34 2.31-10.86 4.7-16.19 7.22A22.58 22.58 0 0 0 292.94 357c-1.72 3.46-1.83 7.07-1.48 11.42a23.49 23.49 0 0 0 4.54 12.46 18.32 18.32 0 0 0 8.59 6 37.1 37.1 0 0 0 12.09 2.63l3.3.09c5.27.16 10.71.33 16.07.27a102.44 102.44 0 0 0 11.78-1c4.68-.61 8.39-3.49 12-6.27l.23-.18c4.5-3.49 9.13-5 14.19-4.77h.15a22 22 0 0 0 6.24-.24c5.37-1.28 9.35-4.79 12.16-10.72 1.71-3.58 2.36-7.53 3-11.35.14-.87.29-1.75.44-2.62q.72-4 1.42-7.94c.61-3.47 1.22-6.95 1.86-10.42a11.65 11.65 0 0 1 8.44-9.51.42.42 0 0 1 .53.28.41.41 0 0 1-.27.53 10.86 10.86 0 0 0-7.86 8.86c-.64 3.47-1.25 6.94-1.87 10.41q-.69 4-1.41 7.95c-.16.86-.3 1.73-.45 2.6-.64 3.88-1.31 7.89-3.06 11.58-2.93 6.18-7.09 9.83-12.73 11.18a22.64 22.64 0 0 1-6.48.26h-.16c-4.83-.26-9.28 1.25-13.62 4.6l-.23.19c-3.68 2.85-7.48 5.79-12.39 6.43a101.57 101.57 0 0 1-11.88 1z"/>
      <path class="cls-1" d="M321 385a36.31 36.31 0 0 1-8.29-1c-7-1.63-11.52-5.11-14-10.63-3-6.74-1.85-13.54 3-18.18a31.9 31.9 0 0 1 7.43-5.35c2.41-1.24 4.94-2.32 7.4-3.36 2.12-.91 4.33-1.84 6.42-2.87 9.55-4.71 18.69-9.6 25.6-17.81a26.19 26.19 0 0 0 5.6-10.65 46.47 46.47 0 0 0 1.06-7.56c.08-1 .17-2 .28-3a53.2 53.2 0 0 0-.76-15.59c-.49-2.65-1.1-5.32-1.7-7.9-.66-2.89-1.35-5.88-1.87-8.85a20.06 20.06 0 0 1 .56-10.62c1.71-4.6 4.95-8 10.2-10.66a20.66 20.66 0 0 1 13.55-2.31c4 .72 7.74 2.48 12.16 5.7 6.67 4.88 14.17 5.86 20.62 6.18a.43.43 0 1 1 0 .85c-6.58-.33-14.24-1.33-21.09-6.34-4.3-3.15-7.94-4.86-11.8-5.55a19.77 19.77 0 0 0-13 2.23c-5.05 2.57-8.16 5.81-9.79 10.2a19.11 19.11 0 0 0-.52 10.17c.52 2.95 1.2 5.93 1.86 8.81.6 2.59 1.21 5.27 1.71 7.93a54.2 54.2 0 0 1 .76 15.84c-.11 1-.19 2-.27 3a48.69 48.69 0 0 1-1.08 7.7 27.11 27.11 0 0 1-5.78 11c-7 8.33-16.24 13.28-25.87 18-2.12 1-4.33 2-6.47 2.89-2.44 1-5 2.11-7.34 3.33a31.56 31.56 0 0 0-7.24 5.21c-4.58 4.39-5.63 10.82-2.81 17.22 2.33 5.27 6.71 8.59 13.38 10.15 9.5 2.23 17.95.66 25.11-4.66a14.2 14.2 0 0 0 3.56-4.33c2.65-4.53 6.76-6.58 10.43-8a53.82 53.82 0 0 1 21-3.29 22.86 22.86 0 0 0 7.59-1.2c4.32-1.4 6.44-4.88 8.31-9.68a39.25 39.25 0 0 0 2.46-14.12c0-4.08.07-7.75.44-11.46a10.26 10.26 0 0 1 5.71-8.24c2.39-1.24 4.93-2.26 7.39-3.25 1.07-.43 2.15-.86 3.22-1.31a.44.44 0 0 1 .56.22.43.43 0 0 1-.23.56q-1.6.68-3.24 1.32a78.91 78.91 0 0 0-7.3 3.22 9.4 9.4 0 0 0-5.27 7.56c-.36 3.68-.41 7.33-.43 11.38a40.06 40.06 0 0 1-2.52 14.43c-1.69 4.34-3.93 8.58-8.84 10.18a23.94 23.94 0 0 1-7.87 1.24 53.15 53.15 0 0 0-20.7 3.25c-3.53 1.36-7.48 3.32-10 7.63a14.92 14.92 0 0 1-3.78 4.58A28.76 28.76 0 0 1 321 385z"/>
      <path class="cls-1" d="M227.31 408.91a.43.43 0 0 1-.42-.37l-.2-1.29c-.14-.93-.28-1.86-.41-2.79s-.32-2.12-.5-3.18a45.8 45.8 0 0 1-.84-7.49c0-4.25 2.29-6.78 6.42-7.13a85.71 85.71 0 0 1 9-.4c4.82.08 9.65-.94 15.76-3.27 1.12-.43 2.24-.88 3.36-1.33 2.57-1 5.22-2.08 7.91-2.9a58.26 58.26 0 0 1 7.55-1.59l1.87-.31a4.75 4.75 0 0 0 4.12-3.79c.69-2.66 1.56-6.17 2.24-9.76 1.95-10.34 7.8-18 17.38-22.76a140.78 140.78 0 0 1 16.4-6.5c1.76-.62 3.52-1.23 5.28-1.87a46.39 46.39 0 0 0 14.4-7.83C343 319 346.17 312 346.43 303c.08-3.2.08-6.49 0-9.77a35.59 35.59 0 0 0-.59-5.24 128.45 128.45 0 0 0-4.32-16.3c-.44-1.42-.89-2.85-1.32-4.27a34.43 34.43 0 0 1-.73-19.21 6.54 6.54 0 0 1 4.84-5.2c2.29-.69 4.6-1.44 6.84-2.18 1.73-.56 3.46-1.13 5.2-1.67 7.24-2.25 13.33-2.84 19.17-1.86a101.24 101.24 0 0 1 20.07 5.7l.38.14c3.91 1.53 8 3.11 12.31 3.13a.42.42 0 0 1 .42.42.43.43 0 0 1-.43.43c-4.49 0-8.62-1.63-12.61-3.18l-.38-.15a100.38 100.38 0 0 0-19.92-5.66c-5.7-1-11.67-.38-18.78 1.83-1.73.54-3.46 1.11-5.18 1.67-2.25.74-4.57 1.49-6.87 2.18a5.74 5.74 0 0 0-4.26 4.61 33.6 33.6 0 0 0 .72 18.74c.43 1.43.88 2.85 1.32 4.27a129.14 129.14 0 0 1 4.35 16.4 37.3 37.3 0 0 1 .6 5.37c.1 3.29.1 6.6 0 9.81-.26 9.26-3.56 16.45-10.09 22a47.4 47.4 0 0 1-14.66 8c-1.76.64-3.52 1.25-5.29 1.87a141.28 141.28 0 0 0-16.3 6.47c-9.46 4.69-15 11.94-16.92 22.14-.69 3.63-1.57 7.15-2.26 9.83a5.59 5.59 0 0 1-4.8 4.41l-1.87.31a58.5 58.5 0 0 0-7.44 1.56c-2.66.81-5.29 1.86-7.85 2.88-1.12.45-2.24.9-3.37 1.33-6.21 2.38-11.17 3.4-16.07 3.32-3.24 0-6.47.19-8.93.41-3.68.31-5.63 2.48-5.64 6.28a44.47 44.47 0 0 0 .83 7.35c.18 1.07.36 2.14.5 3.2s.27 1.85.41 2.78l.2 1.3a.41.41 0 0 1-.36.48zM97 143.57a8.68 8.68 0 0 1-4.38-1.37c-.67-.39-1.36-.74-2-1.1a30.59 30.59 0 0 1-2.84-1.59c-3.55-2.32-7.48-2.67-12.72-1.16l-2.25.66c-3.07.89-6.25 1.82-9.41 2.59a31.58 31.58 0 0 1-11.77.6c-4-.57-7.22-2.73-9.76-6.62a19.91 19.91 0 0 0-5.38-5.75c-4.13-2.75-8.57-1.27-12.4.33l-2.38 1a102.28 102.28 0 0 1-11.15 4.22 30 30 0 0 1-6.82.92c-1 .06-2 .12-3 .23a.43.43 0 1 1-.09-.85c1-.1 2.05-.17 3.06-.23a30.34 30.34 0 0 0 6.63-.88 102.11 102.11 0 0 0 11.05-4.2l2.39-1c4-1.69 8.72-3.24 13.2-.26a20.8 20.8 0 0 1 5.62 6c2.4 3.68 5.4 5.72 9.17 6.24a30.3 30.3 0 0 0 11.45-.58c3.14-.76 6.31-1.68 9.37-2.58l2.25-.65c5.51-1.6 9.65-1.21 13.42 1.26.88.57 1.84 1.07 2.77 1.55.71.36 1.41.72 2.09 1.12 2.48 1.45 4.65 1.64 6.48.55 3.75-2.25 8-5.1 10.87-9.24 4.71-6.78 9.16-13.7 13.26-20.17 2.15-3.4 3.14-6.15 3.21-9 .11-4.86-2.55-8.56-5.17-11.54l-1.63-1.85c-1.93-2.17-3.92-4.41-5.69-6.78a14.52 14.52 0 0 1-2.89-10.25 64.72 64.72 0 0 1 2.42-11.49 36.17 36.17 0 0 0 1.49-14.13c-.57-5.35-1.47-11-2.83-17.91a35.22 35.22 0 0 1 .46-16.12q1.15-4.41 2.26-8.84l1-4a.43.43 0 0 1 .83.2l-1 4c-.74 3-1.49 5.91-2.26 8.85a34.36 34.36 0 0 0-.44 15.73c1.36 6.89 2.26 12.61 2.83 18A36.87 36.87 0 0 1 114.75 62a63.87 63.87 0 0 0-2.4 11.34 13.71 13.71 0 0 0 2.73 9.66c1.75 2.34 3.73 4.57 5.65 6.73l1.63 1.85c2.73 3.1 5.49 7 5.38 12.12-.07 3-1.1 5.85-3.34 9.38-4.11 6.48-8.56 13.42-13.28 20.2-3 4.28-7.3 7.2-11.14 9.49a5.67 5.67 0 0 1-2.98.8zM284.84 106.82c-5 0-8.49-2.31-10.34-6.88-2.67-6.62-5-13.23-7.15-19.4a32.12 32.12 0 0 1-1.65-7.43c-.75-7.78 2.38-14.39 5.53-19.83C273.71 49 277.47 46 281.11 43l2-1.67c9-7.51 13.27-16.41 13.1-27.2-.02-3.07-.13-6.13-.21-9.13-.05-1.36-.09-2.72-.14-4.09a.42.42 0 0 1 .42-.43.39.39 0 0 1 .43.41c.05 1.36.09 2.72.14 4.08.1 3 .21 6.12.26 9.19.15 10.84-4.36 20.23-13.43 27.84-.67.57-1.35 1.12-2 1.67-3.58 2.93-7.29 6-9.68 10.07-3.12 5.26-6.18 11.75-5.46 19.26a32.1 32.1 0 0 0 1.61 7.23c2.14 6.16 4.48 12.76 7.14 19.36 1.77 4.39 5.2 6.53 10.15 6.34a60.44 60.44 0 0 0 14.56-2.71l2.48-.71A92.79 92.79 0 0 0 316 97.87a31.59 31.59 0 0 0 17-18.23c1.36-3.66.47-7.18-2.72-10.77l-1.41-1.58c-1.44-1.61-2.93-3.27-4.3-5-5.42-6.76-5.75-13.91-1-21.86A70 70 0 0 1 328 34c.8-1 1.6-2.11 2.37-3.18a28.18 28.18 0 0 0 5-19.3c-.21-2.43-.52-4.9-.81-7.28-.13-1.11-.27-2.21-.4-3.32a.43.43 0 0 1 .85-.1c.12 1.11.26 2.21.39 3.32.3 2.39.6 4.86.81 7.3a29 29 0 0 1-5.16 19.87c-.77 1.08-1.58 2.15-2.38 3.21a67.62 67.62 0 0 0-4.48 6.38c-4.53 7.62-4.22 14.45.95 20.9 1.36 1.69 2.84 3.34 4.27 4.94l1.42 1.58c3.37 3.8 4.34 7.71 2.88 11.64a32.91 32.91 0 0 1-17.36 18.71 95 95 0 0 1-13.67 4.68l-2.47.71a61.33 61.33 0 0 1-14.78 2.77z"/>
      <path class="cls-1" d="M370.26 350.81c-1 0-2 0-3-.08h-.85c-1.91-.07-3.82-.32-5.68-.56s-3.7-.48-5.55-.55c-2.25-.08-4.55 0-6.77.16-1.27.07-2.54.14-3.81.18a7.29 7.29 0 0 0-.79.05c-1.35.1-3 .23-3.52-1.2-.31-.9.29-2.31 1.76-4.19s2.89-3.48 4.34-5.15q1.5-1.71 3-3.46c5.91-7.12 11.49-15.16 12.24-25.66.38-5.25.59-11.46-.76-17.62-.87-4-2.15-8-3.39-11.85l-.44-1.38a25.33 25.33 0 0 1-1.12-11.82 14.94 14.94 0 0 1 6.3-9.85A17 17 0 0 1 375.1 255a25.5 25.5 0 0 1 9.72 4.62c6.44 4.59 13.89 6.82 23.46 7a.42.42 0 0 1 .42.43.41.41 0 0 1-.43.42c-9.75-.19-17.36-2.47-23.95-7.17a24.47 24.47 0 0 0-9.38-4.47 16.18 16.18 0 0 0-12.24 2.62 14 14 0 0 0-5.94 9.29 24.43 24.43 0 0 0 1.09 11.42l.44 1.38c1.25 3.88 2.53 7.89 3.41 11.93 1.37 6.27 1.16 12.55.78 17.86-.77 10.74-6.43 18.91-12.44 26.14-1 1.18-2 2.33-3 3.48-1.44 1.66-2.93 3.37-4.31 5.12-1.21 1.54-1.82 2.81-1.62 3.38.25.75 1.25.73 2.64.63.29 0 .58-.05.84-.05 1.26 0 2.52-.1 3.78-.17 2.25-.13 4.56-.25 6.85-.17 1.89.08 3.79.32 5.63.56s3.74.48 5.6.55h.85c3.39.14 6.91.28 10.19-1.31 3.63-1.78 5.46-4.81 5.58-9.27.13-4.68-.06-9.47-.25-14.09l-.1-2.61A13 13 0 0 1 390 310a178.2 178.2 0 0 0 17.87-10.85.43.43 0 1 1 .5.69 180.5 180.5 0 0 1-18 10.91 12.19 12.19 0 0 0-6.77 11.78l.1 2.6c.19 4.64.38 9.44.25 14.16s-2.17 8.1-6.06 10a16.86 16.86 0 0 1-7.63 1.52zM294.1 98a14.36 14.36 0 0 1-5.5-1c-4.27-1.75-6-5.45-7-8.47A48.93 48.93 0 0 1 279.46 77l-.14-1.4a96 96 0 0 1-.67-13.6 13.32 13.32 0 0 1 2.52-7.79c2.09-2.69 4.35-5.31 6.54-7.84 1.28-1.49 2.56-3 3.82-4.47 3.33-4 6.58-8.46 7.72-13.92a35.48 35.48 0 0 0 .75-11.54 99.77 99.77 0 0 1-.46-10.9c0-1.56 0-3.12-.06-4.67a.85.85 0 0 1 .83-.87.85.85 0 0 1 .86.83c0 1.56.05 3.13.06 4.7a98.55 98.55 0 0 0 .45 10.72 37.36 37.36 0 0 1-.79 12.1c-1.22 5.82-4.61 10.48-8.09 14.66-1.26 1.51-2.54 3-3.83 4.49-2.18 2.51-4.42 5.12-6.49 7.78a11.62 11.62 0 0 0-2.16 6.81 93 93 0 0 0 .68 13.38l.14 1.4a47.46 47.46 0 0 0 2.05 11c1.35 4 3.21 6.27 6.05 7.44a13.89 13.89 0 0 0 7.49.69 59.8 59.8 0 0 0 19.74-6.54 20.66 20.66 0 0 0 7.45-6.68 8.91 8.91 0 0 0-.06-10.66 78.34 78.34 0 0 0-5.4-6.89l-1-1.22c-5.38-6.4-6.28-13.62-2.78-22.1 1.63-3.94 4.27-7.06 7.29-10.44l.07-.08c2.74-3.08 5.58-6.25 6.86-10.24a19 19 0 0 0 1.1-5.81c0-3.4-.26-6.88-.48-10.24-.09-1.4-.18-2.8-.26-4.2A.85.85 0 1 1 331 .8c.08 1.4.17 2.79.26 4.19.23 3.38.45 6.88.49 10.34a20.68 20.68 0 0 1-1.23 6.37c-1.39 4.33-4.35 7.65-7.22 10.85l-.06.08c-2.92 3.27-5.46 6.27-7 10-3.24 7.79-2.43 14.45 2.5 20.37l1 1.21a79.69 79.69 0 0 1 5.51 7 10.59 10.59 0 0 1 .06 12.54 22.29 22.29 0 0 1-8 7.23A61.57 61.57 0 0 1 297 97.71a18.2 18.2 0 0 1-2.9.29zM369.09 128.55a10.32 10.32 0 0 1-8.61-4q-1.56-2-3.1-4c-.87-1.12-1.74-2.25-2.62-3.36s-1.72-2.17-2.59-3.24c-1.72-2.14-3.5-4.34-5.15-6.6a9.54 9.54 0 0 1-.64-11.1 38.66 38.66 0 0 1 2.49-3.5 39.14 39.14 0 0 0 2.34-3.28c1.27-2.09 2.5-4.26 3.69-6.36 1.32-2.34 2.69-4.75 4.13-7.07 2.73-4.39 7.08-6.49 12.58-6.08 2.08.15 4.17.51 6.18.85 1.09.19 2.18.37 3.27.53 3.11.44 7-.5 7.81-4.62.24-1.21.46-2.43.69-3.65l.54-2.87c1-5 4-8.32 8.46-9 2.22-.35 4.49-.5 6.69-.65 1-.06 2-.13 2.95-.21a.85.85 0 0 1 .15 1.69l-3 .22c-2.16.15-4.39.3-6.54.63-5.2.81-6.66 5.62-7.05 7.64l-.54 2.87c-.23 1.22-.45 2.44-.69 3.66-.83 4.29-4.73 6.69-9.72 6-1.11-.16-2.21-.34-3.32-.53-2-.34-4-.69-6-.84-4.9-.36-8.61 1.42-11 5.29-1.42 2.29-2.78 4.69-4.09 7-1.19 2.12-2.43 4.31-3.72 6.42-.74 1.2-1.61 2.33-2.44 3.42a36.42 36.42 0 0 0-2.38 3.35 7.82 7.82 0 0 0 .56 9.22c1.62 2.22 3.38 4.41 5.09 6.53.88 1.08 1.75 2.17 2.61 3.26s1.75 2.24 2.62 3.37c1 1.32 2 2.65 3.1 4 2.21 2.79 5.48 3.79 10 3.06a116.66 116.66 0 0 0 14-3.4 29.35 29.35 0 0 0 8.39-4.26c3.26-2.22 4.51-5.21 4.07-9.68-.15-1.52-.33-3-.51-4.55-.25-2.12-.51-4.32-.69-6.49a41.2 41.2 0 0 1 1.23-14.16c1.26-4.61 4.49-7.21 9.89-8a.85.85 0 1 1 .23 1.68c-4.71.66-7.41 2.79-8.48 6.73a39.57 39.57 0 0 0-1.17 13.58c.17 2.14.43 4.31.68 6.42.18 1.52.36 3 .51 4.58.51 5.1-1 8.67-4.8 11.26a31.29 31.29 0 0 1-8.87 4.48 115.52 115.52 0 0 1-14.18 3.45 18.8 18.8 0 0 1-3.05.31zM408.27 236.51c-1.88-.17-3.75-.33-5.63-.48-4.18-.35-8.5-.72-12.74-1.18-2.58-.29-5.18-.66-7.7-1-3.62-.51-7.37-1-11.06-1.32a119.41 119.41 0 0 0-15.65 0 14.87 14.87 0 0 1-8-1.37c-5.41-2.8-8.84-12.32-6.79-18.87a78 78 0 0 1 5.82-13.09c4.94-9.32 10.22-20.61 11.89-33.72.45-3.6 1.52-8.82 5.52-12.51l1.34-1.26c2-1.86 4.05-3.79 6.26-5.47l1.67-1.28a62 62 0 0 1 9.84-6.65c8.14-4.08 16.91-5.62 25.18-6.68a.43.43 0 0 1 .48.37.43.43 0 0 1-.37.47c-8.2 1.05-16.88 2.57-24.91 6.6a61.43 61.43 0 0 0-9.7 6.56L372 146.9a81.79 81.79 0 0 0-6.19 5.41l-1.35 1.26c-3.79 3.51-4.81 8.53-5.25 12-1.68 13.25-7 24.63-12 34a77.49 77.49 0 0 0-5.76 13c-1.9 6.09 1.37 15.27 6.37 17.86a14.07 14.07 0 0 0 7.53 1.27 121.1 121.1 0 0 1 15.76 0c3.72.28 7.48.82 11.12 1.33 2.51.36 5.11.73 7.67 1 4.23.47 8.55.83 12.73 1.18 1.87.16 3.75.31 5.62.48a.43.43 0 0 1 .39.46.43.43 0 0 1-.37.36z"/>
      <path class="cls-1" d="M386.49 228.61a47.3 47.3 0 0 1-9.93-1.07c-4.3-.92-8.71-1.72-12.84-2.44-.9-.16-1.84-.26-2.75-.35a27.48 27.48 0 0 1-3.79-.55 13.57 13.57 0 0 1-5-2.11c-4.3-3.2-4-8-3.45-11.37 1.07-6.16 3.72-11.83 6.28-17.32l.25-.55c2.92-6.25 5.81-13.06 7.21-20.48 1.29-6.88 4.38-11.74 9.45-14.85a35.76 35.76 0 0 0 5.42-4.44l1.28-1.18c1-.9 1.95-1.88 2.89-2.82 1.3-1.31 2.65-2.66 4.1-3.87 3.4-2.85 7.81-4.32 13.49-4.51a17.8 17.8 0 0 1 9.41 2.39.42.42 0 0 1 .15.58.43.43 0 0 1-.58.16 16.79 16.79 0 0 0-8.95-2.28c-5.48.18-9.73 1.59-13 4.31-1.41 1.18-2.75 2.53-4 3.82-.94.95-1.92 1.93-2.92 2.85l-1.27 1.17a36.07 36.07 0 0 1-5.55 4.54c-4.86 3-7.82 7.65-9.07 14.28-1.45 7.48-4.32 14.39-7.32 20.69l-.25.55c-2.54 5.43-5.16 11.06-6.21 17.1-.87 5 .09 8.3 3.12 10.54a12.71 12.71 0 0 0 4.71 2 28.23 28.23 0 0 0 3.67.54c.93.09 1.88.19 2.82.35 4.13.72 8.55 1.52 12.87 2.45a45.49 45.49 0 0 0 22-.65c2.18-.61 4.37-1.35 6.48-2.06l2.89-1a.43.43 0 0 1 .27.81c-1 .31-1.93.64-2.89 1-2.12.72-4.32 1.47-6.52 2.08a46.39 46.39 0 0 1-12.47 1.69zM.85 361.57a.43.43 0 0 1-.29-.74q2.19-2 4.35-4c3.23-3 6.57-6.1 10-9 5.11-4.38 11.3-6.24 16.68-7.48a60.21 60.21 0 0 0 14.56-5.71 46.15 46.15 0 0 1 11.76-3.89c6.25-1.37 7.78-4.15 9-10.27a23.64 23.64 0 0 0 .35-4.05c0-.74 0-1.48.1-2.21.45-5.87-1.88-10.42-7.35-14.35a27.06 27.06 0 0 0-13.09-5A75.69 75.69 0 0 1 27.17 290c-5.92-2.34-8.62-1.63-13.13 3.47a25 25 0 0 0-2.81 4 72 72 0 0 1-9.65 12.93 1.3 1.3 0 0 0-.22.41c0 .1-.08.2-.13.3a.43.43 0 0 1-.57.19.42.42 0 0 1-.19-.57l.11-.24a2.06 2.06 0 0 1 .38-.67 71.58 71.58 0 0 0 9.54-12.78 25 25 0 0 1 2.91-4.04c4.76-5.4 7.79-6.19 14.08-3.7A74.71 74.71 0 0 0 47 294a27.81 27.81 0 0 1 13.48 5.15c5.66 4.06 8.18 9 7.71 15.11-.06.72-.08 1.44-.1 2.17a24.71 24.71 0 0 1-.37 4.19c-1.29 6.38-3 9.47-9.67 10.93a45.33 45.33 0 0 0-11.54 3.81 61.11 61.11 0 0 1-14.77 5.79c-5.28 1.21-11.35 3-16.31 7.3-3.39 2.9-6.72 6-9.95 9-1.45 1.34-2.89 2.69-4.35 4a.46.46 0 0 1-.28.12z"/>
      <path class="cls-1" d="M383.76 221.51a21.84 21.84 0 0 1-4.11-.39c-4.55-.83-8.62-3.07-12.57-5.22-1.27-.7-2.58-1.42-3.88-2.08-3.24-1.63-4.75-4.45-4.49-8.36.27-4.11 1.65-8.31 4.32-13.23.71-1.3 1.49-2.6 2.24-3.84.89-1.48 1.81-3 2.61-4.54s1.53-3.15 2.24-4.7 1.48-3.27 2.31-4.86a7.07 7.07 0 0 1 7.53-3.88c3 .35 4 2.72 4.71 4.92a13.17 13.17 0 0 0 2.55 4.33 2.2 2.2 0 0 0 1.75 1 2 2 0 0 0 1.33-1.11 9.7 9.7 0 0 0 1.34-4.45 25.29 25.29 0 0 0-1-6.61 12.05 12.05 0 0 1 .9-9.3 4.7 4.7 0 0 1 2.9-2.6 4.54 4.54 0 0 1 3.63 1l.2.14a14.1 14.1 0 0 1 1.68 1.34 15.14 15.14 0 0 0 8.35 3.95.42.42 0 0 1 .35.49.43.43 0 0 1-.49.35 16 16 0 0 1-8.8-4.18 13.86 13.86 0 0 0-1.58-1.26l-.2-.14a3.72 3.72 0 0 0-2.95-.89 3.88 3.88 0 0 0-2.34 2.18 11.19 11.19 0 0 0-.83 8.67 26.12 26.12 0 0 1 1 6.83A10.81 10.81 0 0 1 391 180a2.63 2.63 0 0 1-2 1.54 2.91 2.91 0 0 1-2.47-1.27 14.08 14.08 0 0 1-2.72-4.62c-.83-2.55-1.76-4.08-4-4.35a6.22 6.22 0 0 0-6.68 3.43c-.82 1.57-1.57 3.22-2.29 4.82s-1.45 3.19-2.26 4.74-1.73 3.1-2.63 4.58c-.75 1.24-1.52 2.53-2.22 3.82-2.62 4.8-4 8.89-4.22 12.87-.23 3.55 1.12 6.09 4 7.55 1.32.67 2.64 1.39 3.91 2.09 3.89 2.13 7.9 4.32 12.31 5.14 8.62 1.59 18.3-1.89 20.52-13.26l.15-.78a15.77 15.77 0 0 1 .93-3.57c1.13-2.66 3.36-4.15 6.83-4.56a.44.44 0 0 1 .47.38.43.43 0 0 1-.38.47c-3.13.36-5.14 1.69-6.14 4a15.93 15.93 0 0 0-.88 3.39l-.15.8c-1.91 10.13-9.53 14.3-17.32 14.3zM129 408.91a.43.43 0 0 1-.42-.4c0-.59-.09-1.18-.14-1.76-.1-1.3-.21-2.64-.26-4a41.23 41.23 0 0 1 4.09-19.17c2.18-4.77 2.59-9 1.29-13.18-1.45-4.66-4.64-7.62-9.78-9a28.79 28.79 0 0 0-6.82-.82c-3.28-.08-6.62-.06-9.85 0h-5.45a61.81 61.81 0 0 1-13.56-2.05l-1.18-.28c-2.56-.62-5-1.21-7.61-.59a6.82 6.82 0 0 0-5.15 8.7 69.46 69.46 0 0 0 2.84 8.08 31.84 31.84 0 0 1 2.27 9.73c.28 3.61.63 7.28 1 10.83.22 2.37.44 4.75.64 7.12.13 1.47.22 2.94.3 4.42l.12 1.91a.42.42 0 0 1-.4.45.4.4 0 0 1-.45-.39l-.12-1.92c-.08-1.47-.17-2.93-.29-4.4q-.31-3.56-.65-7.11c-.33-3.55-.67-7.23-1-10.85a31.15 31.15 0 0 0-2.2-9.47 69.44 69.44 0 0 1-2.87-8.21 7.63 7.63 0 0 1 5.77-9.74c2.85-.67 5.47 0 8 .58l1.18.28a61 61 0 0 0 13.37 2h5.44c3.23 0 6.57 0 9.87.05a29.64 29.64 0 0 1 7 .85c5.44 1.49 8.83 4.63 10.37 9.59 1.37 4.43.95 8.81-1.33 13.78a40.51 40.51 0 0 0-4 18.79c.05 1.31.16 2.64.26 3.93.05.59.1 1.18.14 1.77a.43.43 0 0 1-.4.45zM30.23 409.33h-.08a.86.86 0 0 1-.77-.93c0-.44.07-.88.1-1.32a23 23 0 0 1 .35-3.05c.39-1.91.81-3.81 1.24-5.72.62-2.73 1.25-5.56 1.75-8.35 1-5.68-.27-9.56-4.09-12.2l-1.41-1c-1.1-.74-2.24-1.51-3.32-2.35l-1.12-.89a67.84 67.84 0 0 1-6.06-5.12 7.61 7.61 0 0 1-1.82-8.58c2.52-6.16 7.24-10 14-11.54a35.19 35.19 0 0 1 8.9-.46l1.9.06a34.89 34.89 0 0 1 5.23.61c5.74 1 9.87 4.7 12.63 11.33a84.84 84.84 0 0 0 10.51 18.6 29.55 29.55 0 0 1 3.58 6.49c3.32 8 4 16.38 4.18 23.55a.84.84 0 0 1-.82.87.85.85 0 0 1-.86-.83c-.2-7-.84-15.21-4.05-22.94a27.88 27.88 0 0 0-3.37-6.12 86.45 86.45 0 0 1-10.72-19c-2.55-6.14-6.16-9.42-11.35-10.32a34.81 34.81 0 0 0-5-.58l-1.93-.06a34.4 34.4 0 0 0-8.48.42c-6.22 1.37-10.53 4.91-12.82 10.52a6 6 0 0 0 1.47 6.81 68.78 68.78 0 0 0 5.91 5l1.13.88c1 .81 2.14 1.56 3.22 2.28l1.42 1c4.38 3 5.95 7.58 4.81 13.9-.51 2.83-1.15 5.68-1.77 8.43-.42 1.89-.85 3.78-1.24 5.68a21 21 0 0 0-.31 2.82c0 .46-.06.91-.11 1.37a.85.85 0 0 1-.83.74zM46.2 55.63a19.25 19.25 0 0 1-13.53-5.1c-3.28-3.22-5-7.77-5-13.16a30.68 30.68 0 0 0-1.18-7.44c-1.49-6.15-5.29-10.79-8.8-14.52-2.93-3.12-6.23-6.82-8.26-11.32-.29-.66-.63-1.31-1-1.95L8 1.24a.42.42 0 0 1 .21-.57.43.43 0 0 1 .57.19l.45.89c.34.66.67 1.31 1 2 2 4.38 5.22 8 8.1 11.09 3.37 3.58 7.45 8.52 9 14.9a31 31 0 0 1 1.21 7.64c0 5.16 1.6 9.5 4.72 12.56a18.59 18.59 0 0 0 13.47 4.84 22.81 22.81 0 0 0 9.17-2.57c5.86-2.82 11.79-6 18.14-9.74s10.88-7.89 14.16-12.9a14.46 14.46 0 0 0 2.4-8.11v-3.6-11.3c0-1.32.13-2.66.24-3.95.08-.61.16-1.19.16-1.79a.41.41 0 0 1 .45-.39.43.43 0 0 1 .4.45c0 .6-.1 1.2-.15 1.8-.11 1.28-.23 2.6-.24 3.89V21.46A15.4 15.4 0 0 1 88.91 30c-3.35 5.12-8.07 9.42-14.43 13.16S62.16 50.14 56.28 53a23.8 23.8 0 0 1-9.52 2.65zM.65 345.05a.42.42 0 0 1-.4-.28.43.43 0 0 1 .25-.55c.77-.28 1.55-.53 2.33-.78a29.92 29.92 0 0 0 4.93-1.9c5.64-3 11.55-4.85 18.69-6.72a49 49 0 0 0 15-6.45c1.37-.91 2.81-1.76 4.2-2.59s2.79-1.66 4.14-2.55a48.63 48.63 0 0 0 4-3.13l.85-.7c3.92-3.24 3.54-9.1 1-12.68-3-4.09-7.42-5.41-11.36-6.15l-4.32-.84c-3.59-.7-7.3-1.43-11-2-5.13-.78-9.6 1.09-13.25 5.54-5.55 6.77-9.37 12.7-12 18.66-.61 1.36-1.16 2.72-1.71 4.07-.25.62-.5 1.24-.76 1.85a.42.42 0 0 1-.78-.32l.75-1.85c.56-1.36 1.11-2.73 1.71-4.08 2.66-6 6.51-12 12.11-18.85 3.86-4.7 8.58-6.67 14-5.84 3.69.55 7.41 1.28 11 2l4.31.83c4.12.78 8.74 2.16 11.89 6.49s2.75 10.66-1.09 13.83l-.84.7a45.32 45.32 0 0 1-4.1 3.18c-1.37.91-2.8 1.76-4.17 2.58s-2.81 1.67-4.17 2.57a49.75 49.75 0 0 1-15.24 6.56c-7.08 1.85-12.93 3.69-18.5 6.65a30 30 0 0 1-5.07 2c-.77.25-1.54.5-2.3.77z"/>
      <path class="cls-1" d="M50.51 47.64c-4.33 0-8-2-11.23-5.92a37.66 37.66 0 0 1-5.36-10.11 87.67 87.67 0 0 0-9.53-18.29C22.71 10.93 21.1 8.43 19.53 6l-1.48-2.27c-.36-.55-.68-1.11-1-1.68-.14-.26-.29-.52-.44-.78a.42.42 0 0 1 .73-.43c.16.26.31.52.45.79.32.55.63 1.1 1 1.64l1.49 2.29c1.56 2.41 3.17 4.89 4.83 7.28a88.27 88.27 0 0 1 9.63 18.45A36.69 36.69 0 0 0 40 41.18c4 5 9 6.66 15 4.94a51.19 51.19 0 0 0 22.65-13.35c3.33-3.35 5.17-6.58 5.79-10.17a37.17 37.17 0 0 0 .32-11.3A46.49 46.49 0 0 1 83.6 4c0-1.06.06-2.12.06-3.18a.43.43 0 0 1 .85 0c0 1.07 0 2.14-.06 3.21a45.85 45.85 0 0 0 .15 7.13 37.9 37.9 0 0 1-.32 11.56c-.65 3.72-2.62 7.19-6 10.62a52.11 52.11 0 0 1-23 13.57 17.2 17.2 0 0 1-4.77.73zM383.63 299.39h-1.08a15.4 15.4 0 0 1-11.55-5.3 50 50 0 0 1-8-13.39c-1.15-2.72-2.37-6.36-1.55-10.43a10.83 10.83 0 0 1 12.16-8.3 22.54 22.54 0 0 1 8.29 3.57 54.75 54.75 0 0 0 15 6.68c2.62.75 5.24 1.63 7.78 2.49l3.46 1.16a.41.41 0 0 1 .27.54.42.42 0 0 1-.53.27l-3.47-1.16c-2.53-.86-5.14-1.74-7.74-2.48a55.85 55.85 0 0 1-15.23-6.78 21.49 21.49 0 0 0-8-3.45c-4.4-.8-10.11 2.3-11.18 7.62-.77 3.85.4 7.33 1.5 9.94a49.22 49.22 0 0 0 7.84 13.16 14.36 14.36 0 0 0 10.9 5c6.23.25 12.06-1.69 17.88-5.89 1.76-1.27 3.44-2.73 5.08-4.14.75-.65 1.5-1.3 2.26-1.93a.42.42 0 1 1 .54.65c-.76.63-1.5 1.28-2.25 1.92-1.64 1.42-3.34 2.89-5.14 4.19-5.56 4.07-11.24 6.06-17.24 6.06zM118.77 408.91a.43.43 0 0 1-.37-.47c.13-1 .23-2.07.34-3.1.24-2.28.48-4.64.93-6.92.84-4.21 1.88-8.44 2.87-12.54l.78-3.19c.19-.81.44-1.61.67-2.39a24 24 0 0 0 .9-3.5c.68-4.37-1-7.12-5.21-8.67a18.23 18.23 0 0 0-5-1c-4.94-.35-10.12.27-16.8 2A13.12 13.12 0 0 0 87.8 379a53.53 53.53 0 0 0-2 16.19c.12 2.53.43 5.11.74 7.6.15 1.27.3 2.53.43 3.8a8.21 8.21 0 0 1 0 1.31v.57a.43.43 0 0 1-.85 0v-.59a8 8 0 0 0 0-1.2c-.13-1.27-.29-2.53-.44-3.79-.3-2.5-.61-5.1-.74-7.66a53.88 53.88 0 0 1 2-16.44c1.44-5.52 5-9.05 10.67-10.52 6.77-1.75 12-2.37 17.07-2a19.08 19.08 0 0 1 5.2 1.06c4.62 1.69 6.5 4.83 5.76 9.6a25.93 25.93 0 0 1-.92 3.62c-.24.77-.48 1.56-.67 2.33l-.77 3.2c-1 4.09-2 8.32-2.86 12.5-.45 2.25-.69 4.59-.92 6.84-.11 1-.22 2.09-.35 3.12a.42.42 0 0 1-.38.37zM257.53 43.25c-2 0-4.18-1-7.26-3.7-4-3.47-8.2-6.89-12.25-10.19l-3-2.47c-4.56-3.73-6.94-7.4-7.72-11.89-.56-3.24-1.25-6.53-1.92-9.71-.31-1.45-.61-2.9-.91-4.36a.43.43 0 1 1 .84-.16c.29 1.45.6 2.89.9 4.34.67 3.19 1.36 6.49 1.93 9.75.74 4.27 3 7.78 7.42 11.37l3 2.48c4.05 3.3 8.25 6.72 12.27 10.2 5.73 5 7.8 3.87 12.35 1.46a119.12 119.12 0 0 0 15.23-9.54 22.09 22.09 0 0 0 9.25-17.55c.09-2.85.07-5.77 0-8.58V.85a.43.43 0 0 1 .85 0v3.84c0 2.83.05 5.75 0 8.62a22.92 22.92 0 0 1-9.59 18.2 119.17 119.17 0 0 1-15.35 9.61c-2.37 1.26-4.16 2.13-6.04 2.13zM150.19 408.91h-.13a.43.43 0 0 1-.27-.54c.12-.4.23-.81.35-1.22a14.58 14.58 0 0 1 .92-2.7c.57-1.14 1.16-2.26 1.75-3.38a53.59 53.59 0 0 0 4.53-10.23l.37-1.3c.71-2.53 1.45-5.15 2.29-7.69a13 13 0 0 1 20-6.7c6.69 4.79 8 12.25 3.38 19.48-2.31 3.63-5.22 5.74-8.64 6.28a45.22 45.22 0 0 1-6 .41c-.59 0-1.18 0-1.77.05a7.44 7.44 0 0 0-6.34 3.12 9 9 0 0 0-1 2.75c-.12.47-.24.94-.4 1.39a.42.42 0 0 1-.8-.26c.14-.44.26-.9.38-1.35a9.83 9.83 0 0 1 1.15-3 8.25 8.25 0 0 1 7-3.5l1.78-.05a44.79 44.79 0 0 0 5.91-.4c3.21-.51 5.85-2.44 8.05-5.89 4.35-6.81 3.14-13.84-3.16-18.34a12.15 12.15 0 0 0-18.68 6.27c-.83 2.53-1.57 5.14-2.29 7.66l-.37 1.3a54.8 54.8 0 0 1-4.58 10.4c-.59 1.11-1.18 2.23-1.75 3.36a13.31 13.31 0 0 0-.86 2.54c-.12.42-.23.84-.36 1.26a.44.44 0 0 1-.46.28z"/>
      <path class="cls-1" d="M54.28 39.84a11.73 11.73 0 0 1-5.46-1.31 21.46 21.46 0 0 1-7.09-6.21c-4.63-6-7.78-12.94-10.62-19.49-1.11-2.65-2.05-5.45-2.92-8.15-.4-1.24-.8-2.47-1.19-3.68a.42.42 0 0 1 .8-.28c.43 1.23.83 2.47 1.23 3.7.87 2.69 1.77 5.47 2.9 8.08 2.78 6.5 5.91 13.34 10.48 19.3a20.56 20.56 0 0 0 6.8 6c3 1.55 6.52 1.61 10.44.17a27.58 27.58 0 0 0 15.6-13.28 19.35 19.35 0 0 0 1.8-7.93c.2-3.73.16-7.54.12-11.22V.87a.43.43 0 0 1 .85 0C78 2.4 78 4 78 5.51c0 3.7.08 7.52-.12 11.27A20 20 0 0 1 76 25.07a28.41 28.41 0 0 1-16.06 13.68 16.6 16.6 0 0 1-5.66 1.09zM262.38 31.53A14.45 14.45 0 0 1 254.2 29c-1.54-1-3.15-2-4.71-2.89s-3.13-1.86-4.65-2.86c-5.25-3.46-8.33-7.88-9.4-13.51-.38-2-.87-4-1.35-6q-.34-1.38-.66-2.76a.41.41 0 0 1 .31-.51.42.42 0 0 1 .51.31l.66 2.76c.48 2 1 4 1.37 6 1 5.39 4 9.63 9 13 1.5 1 3.09 1.93 4.62 2.84s3.19 1.89 4.73 2.91c4.45 2.94 9.25 3.18 15.13.76 6.59-2.72 10.57-7 12.16-13 .82-3.08 1.75-6.58.91-10.2a12.15 12.15 0 0 1-.13-3.46c0-.51.06-1 .06-1.52a.43.43 0 0 1 .85 0c0 .52 0 1-.06 1.57a11.06 11.06 0 0 0 .11 3.22c.88 3.82-.07 7.43-.91 10.61-1.64 6.28-5.75 10.73-12.64 13.54a20.41 20.41 0 0 1-7.73 1.72zM377.67 408.7a.42.42 0 0 1-.36-.2.43.43 0 0 1 .14-.59 20.56 20.56 0 0 0 8.55-10.82 63.59 63.59 0 0 1 13-21.73c4.37-4.7 6-10.2 5-16.8a25.18 25.18 0 0 1 3.55-18.25.43.43 0 0 1 .59-.13.44.44 0 0 1 .13.59 24.37 24.37 0 0 0-3.43 17.66 20 20 0 0 1-5.17 17.51 62.42 62.42 0 0 0-12.85 21.44 21.46 21.46 0 0 1-8.89 11.26.43.43 0 0 1-.26.06zM96.33 408.91a.43.43 0 0 1-.4-.28c-.23-.64-.48-1.27-.72-1.91-.54-1.37-1.09-2.8-1.51-4.25a24.79 24.79 0 0 1-.6-12.85c1.46-6 4.77-9.83 9.85-11.3 2.69-.78 4.87-.7 6.49.25a5.88 5.88 0 0 1 2.68 3.93 22.29 22.29 0 0 1-.13 8.29c-.95 6.18-3.33 12-5.88 17.86a.44.44 0 0 1-.56.22.41.41 0 0 1-.22-.56c2.53-5.83 4.88-11.57 5.82-17.65a21.4 21.4 0 0 0 .14-8 5.09 5.09 0 0 0-2.27-3.4c-1.42-.82-3.38-.88-5.83-.17-4.83 1.4-7.86 4.9-9.27 10.69a24 24 0 0 0 .6 12.41c.4 1.42 1 2.83 1.48 4.19.25.63.49 1.27.73 1.91a.43.43 0 0 1-.25.55z"/>
      <path class="cls-1" d="M55.2 29.27a15.18 15.18 0 0 1-11.33-5.36c-5.26-5.74-8.26-13.27-9.17-23a.43.43 0 0 1 .39-.46.44.44 0 0 1 .46.38c.89 9.56 3.82 16.93 9 22.53a14.25 14.25 0 0 0 11.36 5.04 12.8 12.8 0 0 0 7.51-3c3.59-2.87 5.66-6.85 6.32-12.16.36-2.84.51-5.77.65-8.6.07-1.27.13-2.55.22-3.82a.43.43 0 0 1 .45-.39.43.43 0 0 1 .4.45c-.09 1.27-.15 2.54-.22 3.81-.14 2.84-.29 5.78-.65 8.65-.69 5.47-2.92 9.75-6.64 12.73a13.66 13.66 0 0 1-8 3.18zM408.27 46.77a.23.23 0 0 1-.11 0l-.47-.14a3.94 3.94 0 0 0-.89-.24L393.93 45l-6.93-.68c-4.07-.42-5.21-1.71-5-5.74a85.65 85.65 0 0 0-2.08-22.13c-.78-3.58-1.66-7.2-2.5-10.71-.39-1.59-.77-3.19-1.15-4.79a.42.42 0 0 1 .31-.51.43.43 0 0 1 .52.31c.37 1.6.76 3.2 1.14 4.79.85 3.51 1.72 7.14 2.51 10.73a86.39 86.39 0 0 1 2.1 22.34c-.15 3.58.65 4.49 4.28 4.86l6.91.72q6.45.66 12.88 1.34a5.24 5.24 0 0 1 1.07.27l.43.14a.41.41 0 0 1 .29.52.42.42 0 0 1-.44.31zM237.51 408.9a.42.42 0 0 1-.42-.42v-1.15-2.55c.24-3.66 1.2-8.17 6.52-10.64a87.5 87.5 0 0 1 13.39-4.66h.11c3.75-1.06 7.63-2.16 11.74-1.18 6.67 1.58 11.29 4.93 14.11 10.23 1.74 3.25 1.61 7 1.51 10a.42.42 0 0 1-.42.41.42.42 0 0 1-.41-.43c.13-3.7.1-6.74-1.41-9.57-2.7-5.08-7.14-8.28-13.56-9.81-3.9-.92-7.5.1-11.31 1.18h-.11a86.13 86.13 0 0 0-13.25 4.6c-3.89 1.81-5.69 4.78-6 9.92-.06.82 0 1.67 0 2.48v1.17a.42.42 0 0 1-.49.42zM36.35 408.91h-.09a.43.43 0 0 1-.33-.51c.17-.78.31-1.58.44-2.37a23.87 23.87 0 0 1 1.29-5.22c2.47-6 5.21-12.09 8.35-18.6 1.55-3.2 4.71-4.24 8.06-2.65a10.32 10.32 0 0 1 2.34 1.44 34.86 34.86 0 0 1 9.93 14.85 53 53 0 0 1 2.87 12.34.43.43 0 0 1-.38.47.44.44 0 0 1-.47-.38 52.43 52.43 0 0 0-2.82-12.14 34.07 34.07 0 0 0-9.69-14.5 9.13 9.13 0 0 0-2.14-1.36c-2.94-1.39-5.59-.53-6.93 2.25-3.14 6.5-5.87 12.56-8.34 18.55a24.11 24.11 0 0 0-1.23 5c-.14.81-.27 1.62-.45 2.41a.43.43 0 0 1-.41.42zM345.23 408.91a.45.45 0 0 1-.41-.31c-1.63-5.72-5.62-9.19-12.55-10.92a65.7 65.7 0 0 0-13.78-1.68c-2.76-.1-5.57-.27-8.28-.44-2.07-.12-4.14-.25-6.21-.34-4.77-.22-7.93 1.74-9.34 5.83-.58 1.67-1 3.44-1.45 5.14-.2.79-.4 1.58-.61 2.37a.42.42 0 1 1-.82-.22c.21-.78.41-1.57.6-2.36.44-1.72.89-3.5 1.48-5.21 1.54-4.49 5-6.64 10.18-6.4 2.07.09 4.15.22 6.22.35 2.71.16 5.51.33 8.26.43a66.44 66.44 0 0 1 14 1.68c7.15 1.79 11.46 5.55 13.16 11.5a.43.43 0 0 1-.29.53zM313.17 28.1a4.92 4.92 0 0 1-1.62-.27 5.77 5.77 0 0 1-3.27-3.1 35 35 0 0 1-2.85-9.94 43 43 0 0 1-.2-14 .42.42 0 0 1 .49-.35.43.43 0 0 1 .35.49 41.81 41.81 0 0 0 .2 13.73 34.13 34.13 0 0 0 2.73 9.7 5 5 0 0 0 2.82 2.64 5.25 5.25 0 0 0 4-.48c5.06-2.51 8.07-6.14 9.21-11.1A29.66 29.66 0 0 0 325 4a12.78 12.78 0 0 0-.51-1.9c-.1-.3-.19-.6-.28-.91a.42.42 0 1 1 .79-.25c.09.29.18.59.28.88a13.45 13.45 0 0 1 .54 2 30.52 30.52 0 0 1 0 11.79c-1.2 5.23-4.36 9-9.66 11.67a6.89 6.89 0 0 1-2.99.82zM265.13 21.46a13.59 13.59 0 0 1-1.54-.08 29.1 29.1 0 0 1-10.78-3.83c-6.39-3.5-9.89-9.11-10.42-16.67a.43.43 0 0 1 .4-.45.42.42 0 0 1 .45.39c.51 7.35 3.77 12.58 10 16a28.44 28.44 0 0 0 10.46 3.73c4.75.48 8.38-1.4 10.82-5.61a16.71 16.71 0 0 0 2.16-8.57V.85a.42.42 0 0 1 .42-.42.43.43 0 0 1 .43.42v5.51a17.59 17.59 0 0 1-2.27 9c-2.37 4.05-5.77 6.1-10.13 6.1zM.65 211.21a.42.42 0 0 1-.41-.31.41.41 0 0 1 .29-.52c5.67-1.62 10.28-5 14.08-10.43a15.91 15.91 0 0 0 3.33-9c.17-7.09-2.79-13.08-8.8-17.79-1.92-1.52-3.94-3-5.9-4.4l-2.64-1.9a.43.43 0 0 1-.09-.6.42.42 0 0 1 .59-.09l2.64 1.93c2 1.42 4 2.89 5.93 4.42 6.23 4.89 9.33 11.11 9.12 18.48a16.72 16.72 0 0 1-3.48 9.44C11.39 206 6.63 209.52.76 211.19z"/>
      <path class="cls-1" d="M408.27 42.28h-.08c-.77-.15-1.56-.28-2.34-.42-1.72-.29-3.5-.59-5.22-1-6-1.58-9.64-4.67-11.27-9.44a69.62 69.62 0 0 1-3.22-12.52 54.12 54.12 0 0 1-.14-9.66l.06-2.24a33.4 33.4 0 0 1 .49-4.27c.1-.64.21-1.27.29-1.9a.43.43 0 0 1 .48-.36.42.42 0 0 1 .36.48c-.08.63-.18 1.27-.29 1.91a34.34 34.34 0 0 0-.48 4.14l-.09 2.28a53.32 53.32 0 0 0 .16 9.46 67.68 67.68 0 0 0 3.19 12.36c1.53 4.49 5 7.4 10.67 8.9 1.69.45 3.45.74 5.15 1 .79.14 1.58.27 2.36.42a.42.42 0 0 1-.08.84zM25.33 408.91a.42.42 0 0 1-.39-.46l.41-4.89c.08-1 .13-2 .19-2.95a50 50 0 0 1 .72-6.88 14.1 14.1 0 0 0-.36-5.79l-.16-.79c-.73-3.67-3.42-5.93-6.35-8.1-4.78-3.53-10.17-5.72-16.8-7.92a6.24 6.24 0 0 1-1.36-.7c-.19-.12-.37-.23-.56-.33a.43.43 0 0 1 .42-.75c.2.11.39.24.59.36a5.53 5.53 0 0 0 1.18.61c6.7 2.23 12.17 4.45 17 8.05 3.07 2.27 5.89 4.65 6.67 8.62l.16.78a14.69 14.69 0 0 1 .36 6.13 49.33 49.33 0 0 0-.7 6.76c-.06 1-.11 2-.2 3l-.4 4.9a.43.43 0 0 1-.42.35zM.65 37a.43.43 0 0 1-.43-.4.42.42 0 0 1 .39-.45l1.7-.1c1.25-.07 2.54-.14 3.77-.33a39 39 0 0 0 6.65-1.44 5.55 5.55 0 0 0 3.18-3 5.23 5.23 0 0 0 .2-4.11 37.42 37.42 0 0 0-3.83-7.24c-1.2-1.75-2.55-3.43-3.86-5.06C7.28 13.43 6.1 12 5 10.46 3 7.6.86 4.65.43.9a.42.42 0 0 1 .84-.1c.41 3.54 2.46 6.4 4.45 9.2 1.06 1.45 2.28 2.9 3.36 4.31 1.32 1.64 2.69 3.34 3.9 5.1a38.17 38.17 0 0 1 3.92 7.42 6.11 6.11 0 0 1-.21 4.77A6.48 6.48 0 0 1 13 35.07a39.63 39.63 0 0 1-6.7 1.45 37.81 37.81 0 0 1-4 .36L.68 37zM.85 84.92a.42.42 0 0 1-.28-.1.43.43 0 0 1 0-.6c.15-.17.28-.34.42-.52A6.89 6.89 0 0 1 2 82.55c1.24-1 2.54-1.9 3.79-2.79l.7-.5c6.41-4.6 9.08-13.66 6.35-21.55C10.9 52 6.85 48 .49 45.52a.42.42 0 0 1 .31-.79c6.52 2.58 10.85 6.85 12.87 12.71 2.85 8.23.05 17.7-6.67 22.56l-.7.5c-1.25.89-2.54 1.81-3.77 2.77a6.06 6.06 0 0 0-.93 1l-.45.55a.43.43 0 0 1-.3.1z"/>
      <path class="cls-1" d="M408.27 37.79a.3.3 0 0 1-.13 0c-.82-.27-1.68-.5-2.52-.73a20.69 20.69 0 0 1-5.47-2c-6.61-4.06-7.94-11.1-8.37-16.77a23.94 23.94 0 0 1 2.66-12c.6-1.26 1.29-2.5 2-3.7.3-.54.6-1.08.89-1.63a.43.43 0 1 1 .75.41c-.29.54-.6 1.09-.9 1.63-.66 1.19-1.34 2.42-1.93 3.66a23 23 0 0 0-2.58 11.61c.41 5.47 1.68 12.24 8 16.11a20.16 20.16 0 0 0 5.24 1.95c.85.23 1.73.47 2.57.75a.42.42 0 0 1 .27.53.43.43 0 0 1-.48.18zM53.21 17.93a9 9 0 0 1-7-3.35c-3.36-4-4.2-8.95-4.6-13.69A.42.42 0 0 1 42 .43a.42.42 0 0 1 .46.38c.39 4.61 1.19 9.4 4.4 13.22a8 8 0 0 0 7 3 9.33 9.33 0 0 0 7.16-4.78A23.74 23.74 0 0 0 64.1 2a1.81 1.81 0 0 1 .45-.92l.2-.28a.42.42 0 1 1 .73.43 3.9 3.9 0 0 1-.25.36 1.3 1.3 0 0 0-.28.48 24.45 24.45 0 0 1-3.14 10.58A10.17 10.17 0 0 1 54 17.9q-.4.03-.79.03zM244.86 408.91h-.12a.42.42 0 0 1-.29-.53c1-3.27 2.13-6.64 5.09-8.75 5.43-3.86 10.74-5.17 16.22-4a14.87 14.87 0 0 1 11.75 12.81.43.43 0 0 1-.36.48.43.43 0 0 1-.48-.36 14 14 0 0 0-11.09-12.1c-5.24-1.12-10.32.14-15.55 3.87-2.74 1.95-3.86 5.16-4.77 8.29a.43.43 0 0 1-.4.29zM20 408.91a.43.43 0 0 1-.4-.45q.13-2.06.3-4.11c.23-3 .46-6.09.47-9.12 0-7.59-4.82-11.29-8.89-13.05a24.83 24.83 0 0 0-10.82-2 .44.44 0 0 1-.44-.42.42.42 0 0 1 .41-.43 25.64 25.64 0 0 1 11.19 2.1c4.3 1.86 9.42 5.78 9.4 13.83 0 3.07-.24 6.18-.48 9.18-.1 1.37-.2 2.74-.29 4.11a.43.43 0 0 1-.45.36zM300.76 408.91a.47.47 0 0 1-.17 0 .42.42 0 0 1-.22-.56 11.16 11.16 0 0 1 9.74-6.91 61.26 61.26 0 0 1 11.49 0c5.27.48 9.16 2.72 11.55 6.65a.43.43 0 0 1-.73.45c-2.24-3.69-5.91-5.8-10.9-6.26a61.26 61.26 0 0 0-11.33 0 10.38 10.38 0 0 0-9 6.41.43.43 0 0 1-.43.22zM.65 202.64a.41.41 0 0 1-.4-.27.42.42 0 0 1 .24-.55l.87-.31a10.3 10.3 0 0 0 1.72-.7c4.79-2.66 7.25-6.21 7.51-10.86.27-4.82-2.06-8.63-7.1-11.64-.63-.38-1.26-.73-1.89-1.09l-1-.54a.43.43 0 0 1-.16-.58.42.42 0 0 1 .58-.16l.95.54c.64.36 1.28.72 1.91 1.1 5.35 3.19 7.81 7.25 7.52 12.42-.27 4.89-2.95 8.78-7.95 11.55a10.92 10.92 0 0 1-1.85.76l-.84.3zM150.59 14.53a6.52 6.52 0 0 1-5-2.79C143.06 8.62 141.93 5 140.81 1a.41.41 0 0 1 .29-.52.42.42 0 0 1 .52.3c1.1 4 2.2 7.47 4.61 10.46 1.84 2.3 4 3 6.25 2.1l.18-.07a2.63 2.63 0 0 0 .9-.46c3.76-3.55 5.77-8.09 7.25-12.07a.43.43 0 0 1 .8.3c-1.51 4.06-3.58 8.72-7.47 12.39A3.32 3.32 0 0 1 153 14l-.17.06a5.87 5.87 0 0 1-2.24.47zM394.2 408.91a.42.42 0 0 1-.39-.45l.41-5.1c.05-.57.07-1.15.1-1.72a28 28 0 0 1 .34-3.63c1.7-9.12 6-15.56 13.24-19.68a.44.44 0 0 1 .58.16.42.42 0 0 1-.16.58c-7 4-11.17 10.24-12.82 19.1a25.74 25.74 0 0 0-.33 3.51c0 .58-.06 1.16-.1 1.74l-.41 5.1a.43.43 0 0 1-.46.39z"/>
      <path class="cls-1" d="M13.91 408.91h-.07a.42.42 0 0 1-.35-.48c.12-.84.26-1.67.4-2.5.29-1.78.6-3.63.8-5.45a12 12 0 0 0-2.73-8.8 12.38 12.38 0 0 0-8.3-4.6c-.71-.07-1.42-.18-2.13-.28l-.94-.13a.43.43 0 0 1-.37-.47.43.43 0 0 1 .48-.37l1 .13c.7.1 1.4.2 2.1.27a13.31 13.31 0 0 1 8.88 4.92 12.9 12.9 0 0 1 2.91 9.43c-.21 1.84-.52 3.69-.81 5.49-.14.83-.28 1.66-.4 2.48a.45.45 0 0 1-.47.36zM408.07 32.69a.36.36 0 0 1-.14 0c-7.22-2.43-10.83-9.34-8.77-16.82 1.11-4 4-7.19 8.71-9.66a.43.43 0 1 1 .4.75c-4.54 2.34-7.27 5.32-8.27 9.12-2 7.13 1.34 13.47 8.23 15.79a.41.41 0 0 1 .26.53.42.42 0 0 1-.42.29zM261.6 9a9 9 0 0 1-3.6-.83c-2.85-1.25-4.73-3.61-5.75-7.2a.43.43 0 1 1 .75-.24c1 3.38 2.63 5.5 5.27 6.66a7.13 7.13 0 0 0 6.87-.26 8.13 8.13 0 0 0 3.77-6.31.42.42 0 0 1 .45-.39.41.41 0 0 1 .4.45 9 9 0 0 1-4.16 7 7.65 7.65 0 0 1-4 1.12zM403.17 408.9a.42.42 0 0 1-.42-.42v-3c0-2.23-.05-4.54 0-6.81a13.62 13.62 0 0 1 4.81-10.31.44.44 0 0 1 .6.05.43.43 0 0 1-.05.6 12.8 12.8 0 0 0-4.51 9.7c-.1 2.24-.07 4.54-.05 6.77v3a.42.42 0 0 1-.38.42zM270.15 408.91a.44.44 0 0 1-.38-.25 8.81 8.81 0 0 0-7-5.28 10.17 10.17 0 0 0-9 3.75 4 4 0 0 0-.53 1c-.08.19-.16.38-.25.56a.42.42 0 1 1-.76-.38c.08-.17.16-.34.23-.51a5.11 5.11 0 0 1 .65-1.19 11 11 0 0 1 9.76-4 9.63 9.63 0 0 1 7.67 5.76.42.42 0 0 1-.2.56.41.41 0 0 1-.19-.02zM3.5 408.7a.39.39 0 0 1-.18 0 .42.42 0 0 1-.2-.56l.39-.87c.27-.6.55-1.2.84-1.79a8.46 8.46 0 0 0 .47-7 5.71 5.71 0 0 0-3.68-3.23 1 1 0 0 1-.55-.59l-.09-.18a.42.42 0 0 1 .11-.58.43.43 0 0 1 .59.11 1.73 1.73 0 0 1 .15.27c0 .06.09.17.11.2a6.36 6.36 0 0 1 4.14 3.62 9.24 9.24 0 0 1-.49 7.71c-.29.59-.56 1.18-.82 1.77l-.4.87a.42.42 0 0 1-.39.25zM213.84 408.91a.44.44 0 0 1-.4-.29l-.48-1.34c-.37-1-.74-2.1-1.15-3.13a2 2 0 0 0-1.56-1.2 2.61 2.61 0 0 0-2.38.76 28.35 28.35 0 0 0-2.57 3.29c-.37.52-.73 1-1.11 1.54a.43.43 0 0 1-.6.08.42.42 0 0 1-.08-.59c.37-.5.73-1 1.1-1.52a29.3 29.3 0 0 1 2.64-3.38 3.5 3.5 0 0 1 3.16-1 2.88 2.88 0 0 1 2.19 1.72c.42 1.05.8 2.12 1.16 3.16l.48 1.34a.43.43 0 0 1-.25.55zM.85 29a.43.43 0 0 1-.19 0 .42.42 0 0 1-.19-.57v-.1a1.17 1.17 0 0 1 .25-.42c3.17-3.1 3.39-5.84.77-9.46a9.94 9.94 0 0 1-.75-1.3l-.3-.57a.42.42 0 1 1 .74-.41c.11.19.21.39.31.59a9.9 9.9 0 0 0 .69 1.2c2.89 4 2.63 7.14-.86 10.56l-.06.12a1.22 1.22 0 0 1-.07.17.41.41 0 0 1-.34.19zM46.13 181.91c-1.48 0-3 0-4.49-.09-6.12-.22-9.08-4.65-10.77-8-.4-.78-.79-1.57-1.18-2.36a40 40 0 0 0-5.28-8.79c-1.72-2-3.26-3.79-4.69-5.75a4.15 4.15 0 0 1-.46-4.72 4.52 4.52 0 0 1 4.23-2.31 11.65 11.65 0 0 1 5.71 1.73c3.8 1.91 6.88 2.65 10 2.39l2.34-.16a45.28 45.28 0 0 0 6.37-.69c5.17-1.05 10.4-2.26 15.47-3.43 2.05-.47 4.1-.95 6.16-1.41a.34.34 0 0 1 .2 0h2.77a10.07 10.07 0 0 1 7.25 3.31 8.75 8.75 0 0 1 1.88 6.74 12.25 12.25 0 0 1-5.22 8.45l-3.19 2.44a423.25 423.25 0 0 1-5.39 4.08l-.14.11c-2.08 1.55-4.22 3.15-6.41 4.59a23.34 23.34 0 0 1-11.42 3.72c-1.26.12-2.5.15-3.74.15zM23.6 150.77h-.1a3.73 3.73 0 0 0-3.5 1.88 3.37 3.37 0 0 0 .41 3.8c1.42 1.94 2.94 3.73 4.65 5.7a40.43 40.43 0 0 1 5.41 9c.38.79.77 1.57 1.16 2.35 2.58 5 5.67 7.36 10.05 7.51 2.76.09 5.47.16 8.11 0a22.55 22.55 0 0 0 11-3.59c2.18-1.43 4.31-3 6.37-4.56l.14-.11c1.81-1.34 3.6-2.71 5.38-4.08 1.07-.81 2.13-1.63 3.2-2.43a11.54 11.54 0 0 0 4.89-7.88 8 8 0 0 0-1.69-6.09 9.1 9.1 0 0 0-6.65-3h-1.77a4.31 4.31 0 0 1-1 0c-2.06.46-4.11.94-6.16 1.41-5.03 1.08-10.27 2.32-15.45 3.32a45.86 45.86 0 0 1-6.48.71l-2.33.16c-3.26.26-6.47-.5-10.42-2.48a11.53 11.53 0 0 0-5.22-1.62zM321.27 186.42c-.95 0-2 0-3-.15-4.25-.41-6.9-2.28-7.88-5.57s-1.88-7-2.67-11c-.37-1.91-.64-3.86-.89-5.75-.24-1.73-.48-3.52-.8-5.26-1.27-6.81 1.9-12.31 8.26-14.36a.39.39 0 0 1 .24 0 .31.31 0 0 1 .19 0c.65.14 1.34.25 2 .36a13.55 13.55 0 0 1 4.38 1.19 58.33 58.33 0 0 1 14.79 11.27 15.71 15.71 0 0 1 3.15 5.21c3 7.78-1.23 15.54-5.77 19.82-3.08 2.82-6.94 4.24-12 4.24zm-6.74-41.32c-5.91 1.91-8.85 7-7.67 13.38.33 1.76.58 3.56.81 5.31s.52 3.81.88 5.69c.79 4 1.65 7.61 2.65 11 .87 2.92 3.28 4.59 7.15 5 6.31.6 10.86-.65 14.34-3.92 4.35-4.1 8.42-11.51 5.57-18.9a15.24 15.24 0 0 0-3-4.93 57.92 57.92 0 0 0-14.58-11.1 12.88 12.88 0 0 0-4.12-1.1c-.68-.11-1.38-.22-2-.37zM230.59 178.28c-2.86 0-5.91-1.84-6.74-4.29a7.51 7.51 0 0 1 .37-5.72 5.56 5.56 0 0 1 3.59-2.78.37.37 0 0 1 .21 0h.08c3.25-.18 5.7 1.44 7.5 4.94a5.25 5.25 0 0 1 0 4.67 5.45 5.45 0 0 1-3.7 3.06 6.23 6.23 0 0 1-1.31.12zm-2.57-12a4.69 4.69 0 0 0-3.05 2.36 6.62 6.62 0 0 0-.31 5.05c.81 2.41 4.31 4.19 7.05 3.6a4.63 4.63 0 0 0 3.11-2.59 4.39 4.39 0 0 0 0-3.92c-1.62-3.17-3.81-4.64-6.69-4.48zM265.78 271.16h-.34a13.87 13.87 0 0 1-4.62-1.06 30.46 30.46 0 0 1-10.16-7.81 22.77 22.77 0 0 1-5.38-10.19c-.77-3.26.06-5.48 2.46-6.6a.45.45 0 0 1 .28 0h.09a8.41 8.41 0 0 1 5.56 2.16l1.24 1c2.75 2.21 5.59 4.5 8.15 7 3.45 3.36 5.45 6.89 6.11 10.8a4.29 4.29 0 0 1-.77 3.7 3.36 3.36 0 0 1-2.62 1zM248 246.29c-2 1-2.6 2.74-1.92 5.61a22 22 0 0 0 5.18 9.81 29.64 29.64 0 0 0 9.87 7.6 12.69 12.69 0 0 0 4.33 1 2.74 2.74 0 0 0 2.28-.75 3.53 3.53 0 0 0 .57-3 18.78 18.78 0 0 0-5.87-10.33c-2.54-2.47-5.36-4.75-8.09-7l-1.24-1a7.64 7.64 0 0 0-5-2z"/>
      <path class="cls-1" d="M296.33 218.05h-.27a20.27 20.27 0 0 1-11.68-4.26c-4.1-3-5-7-2.5-11.34a18.59 18.59 0 0 1 4.15-4.8 77.39 77.39 0 0 1 8-6c6.47-4.2 9.34-9.82 8.77-17.19-.08-1.08-.13-2.16-.17-3.24-.06-1.41-.12-2.87-.27-4.29-.3-2.81-.7-5.67-1.1-8.42l-.31-2.18a18.74 18.74 0 0 1 2.14-12.29 14.58 14.58 0 0 1 9.61-6.75.74.74 0 0 1 .21 0h.09c5.23-.64 9.94.86 14.4 4.57 1.11.92 2.23 1.82 3.35 2.73 1.86 1.49 3.79 3 5.61 4.66a44.23 44.23 0 0 1 5.75 6c3.23 4.27 4.3 9.45 3.18 15.4-1.57 8.37-5.29 14.66-11.39 19.23-3.47 2.61-7.63 3.36-11.65 4.08l-.36.07c-6.41 1.16-10.09 3.85-11.91 8.72l-1 2.68c-.55 1.49-1.1 3-1.67 4.47-2.62 6.71-6.31 8.15-10.98 8.15zm16.57-79.89a13.72 13.72 0 0 0-9.07 6.35 17.75 17.75 0 0 0-2 11.74l.3 2.18c.4 2.76.8 5.62 1.1 8.45.16 1.45.22 2.92.28 4.34 0 1.07.09 2.15.17 3.22.59 7.7-2.41 13.58-9.16 18a76.81 76.81 0 0 0-7.9 5.9 17.77 17.77 0 0 0-4 4.57c-2.28 4-1.5 7.52 2.26 10.24a19.48 19.48 0 0 0 11.19 4.09c4.58.07 7.95-1.2 10.41-7.59.57-1.48 1.11-3 1.66-4.46l1-2.67c1.92-5.12 5.91-8.06 12.56-9.27l.35-.06c3.93-.71 8-1.44 11.3-3.93 5.92-4.44 9.54-10.56 11.07-18.71 1.07-5.7 0-10.65-3-14.72a41.89 41.89 0 0 0-5.64-5.86c-1.8-1.61-3.72-3.15-5.57-4.64-1.13-.91-2.25-1.81-3.36-2.73-4.28-3.56-8.78-5-13.76-4.39zM264.28 184.79c-4.25 0-6.61-1.83-8.52-6.31s-3.54-9.38-5.08-14l-.9-2.71a17.44 17.44 0 0 1-.45-9.82c1.27-5.16 5.19-8.2 8.76-10.64 3.72-2.55 8.05-3.8 12.17-4.76a.34.34 0 0 1 .2 0h4.2c5.24 0 9.2 2.85 10.6 7.65.27.92.56 1.83.86 2.75a47.8 47.8 0 0 1 1.54 5.45c.18.93.37 1.85.57 2.78a54 54 0 0 1 1.56 11.79c-.09 6-2.77 10.45-8.2 13.44-4.93 2.72-10.28 3.68-14.86 4.25a19.81 19.81 0 0 1-2.45.13zm6.18-47.45c-4.67 1.1-8.48 2.31-11.89 4.64-3.6 2.46-7.22 5.28-8.42 10.15a16.57 16.57 0 0 0 .44 9.34l.9 2.71c1.53 4.63 3.12 9.43 5.05 14 2.09 4.89 4.64 6.31 10.09 5.63 4.5-.57 9.74-1.5 14.55-4.15 5.14-2.83 7.68-7 7.76-12.71a53.39 53.39 0 0 0-1.54-11.61c-.2-.93-.39-1.85-.57-2.78a47.42 47.42 0 0 0-1.52-5.36c-.3-.92-.6-1.85-.87-2.78-1.28-4.4-4.94-7-9.78-7h-4.1zM48.31 281.71a15.5 15.5 0 0 1-3.07-.3c-4.18-.86-6.8-2.82-8-6-1.53-4-1-7.56 1.42-10.62a10.17 10.17 0 0 1 6-3.39.34.34 0 0 1 .2 0 .28.28 0 0 1 .13 0h1a11.28 11.28 0 0 1 2.16.2c5.78 1.35 9.5 5.43 11 12.15.84 3.65-.71 6.08-4.5 7a25.75 25.75 0 0 1-6.34.96zm-3.49-19.51a9.39 9.39 0 0 0-5.5 3.1c-2.31 2.85-2.73 6.06-1.3 9.79 1.13 2.94 3.48 4.68 7.4 5.48a19.9 19.9 0 0 0 9-.62c3.34-.84 4.61-2.8 3.88-6-1.49-6.46-4.9-10.23-10.41-11.51a10.6 10.6 0 0 0-2-.18h-1z"/>
      <path class="cls-1" d="M301.06 226.45a37.91 37.91 0 0 1-7.52-.82c-3.6-.73-7.18-1.82-10.65-2.87l-1.22-.37c-3.35-1-7.15-2.16-10.34-4.53-3.5-2.59-5.29-5.31-3.38-10.87a24.24 24.24 0 0 1 10.14-12.67c1.57-1 3.19-2 4.76-3 2.61-1.59 5.31-3.25 7.83-5.05 4.46-3.18 6.87-7.24 7.17-12.07a67.11 67.11 0 0 0 0-8.51 105.51 105.51 0 0 0-1.22-10.69 21.74 21.74 0 0 1 5.46-18.91c3.34-3.76 7.86-5.21 11.42-6.06a.34.34 0 0 1 .2 0h.06c6.55-.73 12.26 1.56 17.93 7.22a121 121 0 0 0 10.56 9.35c4.89 3.85 7.39 9.08 7.87 16.47a37.68 37.68 0 0 1-4 19.15c-2.32 4.75-5.21 10.14-10.26 13.85a32.8 32.8 0 0 1-9.71 4.55c-5.3 1.73-8.28 5-9.1 9.88-.15.88-.35 1.77-.55 2.63-.24 1.07-.49 2.18-.64 3.27-.63 4.74-3.21 7.8-7.67 9.11a25.28 25.28 0 0 1-7.14.94zm12.65-95.64c-5.11 1.21-8.5 3-11 5.8a20.92 20.92 0 0 0-5.25 18.2 104.81 104.81 0 0 1 1.22 10.85 65.2 65.2 0 0 1 0 8.62c-.32 5.1-2.85 9.38-7.53 12.72-2.54 1.81-5.26 3.47-7.88 5.08-1.56.95-3.18 1.94-4.74 2.95a23.48 23.48 0 0 0-9.8 12.22c-1.74 5.09-.19 7.49 3.08 9.92 3.08 2.28 6.8 3.41 10.08 4.4l1.23.37c3.44 1 7 2.13 10.57 2.85 5.55 1.12 10.09 1.07 14.27-.16s6.48-4 7.07-8.4c.15-1.13.4-2.26.65-3.34.2-.85.39-1.73.54-2.59.88-5.26 4.05-8.71 9.68-10.55a32.17 32.17 0 0 0 9.47-4.42c4.89-3.6 7.72-8.88 10-13.54a36.92 36.92 0 0 0 3.89-18.73c-.47-7.13-2.86-12.16-7.54-15.85a119.91 119.91 0 0 1-10.64-9.42c-5.48-5.46-11-7.67-17.24-7a.26.26 0 0 1-.13.02zM207.65 133.72a2 2 0 0 1-.66-.11c-.8-.29-2.11-1.08-2.21-2-.06-.63.5-1.19 1-1.74a6 6 0 0 0 .55-.6.44.44 0 0 1 .44-.15h.12a4.26 4.26 0 0 1 3.13 1.2 1.65 1.65 0 0 1 .33 1.34 2.6 2.6 0 0 1-1.32 1.61 2.94 2.94 0 0 1-1.38.45zm-.75-3.72q-.22.26-.48.51c-.32.32-.81.82-.79 1s.8.94 1.64 1.25a1.74 1.74 0 0 0 1.37-.24 1.77 1.77 0 0 0 .91-1 .77.77 0 0 0-.16-.67 3.52 3.52 0 0 0-2.49-.85zM297.26 323c-3.89 0-6.82-2-8.94-6.16-2.64-5.17-4.26-10.77-5.82-16.18L282 299a42.15 42.15 0 0 1-2.07-12.15c.05-3.77 2.27-6.09 6.1-6.35a11.66 11.66 0 0 0 1.48-.24l.72-.15a.32.32 0 0 1 .17 0 .28.28 0 0 1 .13 0 83.61 83.61 0 0 1 16.42 2.4c4 1.08 7.83 2.26 11.15 4.83 4.77 3.71 8.11 8.67 10.48 12.57 1.93 3.18 2.5 6.31 1.64 9.06s-3.11 5-6.53 6.54c-4.76 2.13-9.79 3.83-14.66 5.47l-3.31 1.12a20.17 20.17 0 0 1-4.82.81l-.56.05a10.29 10.29 0 0 1-1.08.04zm-8.85-42l-.7.14a11.72 11.72 0 0 1-1.59.26c-3.39.23-5.27 2.19-5.31 5.51a41.07 41.07 0 0 0 2 11.9l.48 1.68c1.56 5.37 3.16 10.92 5.77 16 2.16 4.23 5.08 6 9.19 5.66h.56a19.58 19.58 0 0 0 4.63-.78l3.31-1.12c4.85-1.63 9.86-3.32 14.58-5.43 3.19-1.43 5.29-3.51 6.07-6s.24-5.4-1.56-8.36c-2.33-3.85-5.61-8.72-10.27-12.34-3.19-2.48-6.95-3.63-10.85-4.69a83.85 83.85 0 0 0-16.23-2.43z"/>
      <path class="cls-1" d="M322.7 175.07a6.62 6.62 0 0 1-5.84-3.22 17.29 17.29 0 0 1-2.18-10.27c.17-1.87.65-3.89 2.87-4.65a.39.39 0 0 1 .24 0 8.63 8.63 0 0 1 6.25 1.78c2.83 1.92 5.05 4.86 5.51 7.33.59 3.11-.89 7.18-4.4 8.59a6.66 6.66 0 0 1-2.45.44zm-4.91-17.32c-1.63.57-2.09 2-2.26 3.91a16.25 16.25 0 0 0 2.07 9.78 6 6 0 0 0 7.26 2.38c3.05-1.23 4.39-4.93 3.88-7.64-.43-2.26-2.5-5-5.15-6.79a7.83 7.83 0 0 0-5.62-1.64zM205.67 148.52a15.4 15.4 0 0 1-2.7-.24 41.76 41.76 0 0 1-19.34-9 5.76 5.76 0 0 1-2.29-3.91 6.55 6.55 0 0 1 1.81-4.77c5-6 11.31-12.32 20.6-14.45a.44.44 0 0 1 .2 0h.05a21.25 21.25 0 0 1 15 4.58c6.3 4.73 7.68 10.56 4 16.86-1.93 3.29-4.85 5.6-7.43 7.51a16.54 16.54 0 0 1-9.9 3.42zM204 116.94c-9 2.07-15.26 8.32-20.14 14.16a5.75 5.75 0 0 0-1.61 4.15 5 5 0 0 0 2 3.34 41 41 0 0 0 19 8.85 15.14 15.14 0 0 0 11.92-3.07c2.51-1.85 5.35-4.1 7.19-7.25 4.35-7.42.35-12.66-3.76-15.75a20.22 20.22 0 0 0-14.51-4.37.33.33 0 0 1-.09-.06zM112.27 349.23a28.71 28.71 0 0 1-16-4.4l-.14-.09c-4.91-3.18-10-6.46-12.18-12.44a18.06 18.06 0 0 1-1.39-7.08 20.12 20.12 0 0 1 3.42-9.6 20 20 0 0 0 2.77-14.39c-.72-4.59.64-10.47 6.87-11.9l2.74-.63 1.75-.4a.44.44 0 0 1 .2 0 .32.32 0 0 1 .14 0c3.63.3 8.21 1.14 11.5 5.05l1.47 1.73a72.19 72.19 0 0 1 4.85 6.08l1.27 1.85a133.39 133.39 0 0 0 11.34 15c3.32 3.63 4.33 7.71 2.94 11.8a89.15 89.15 0 0 1-4.3 10.25c-2.61 5.33-7.3 8.43-13.57 9-1.26.12-2.49.17-3.68.17zm-12-60.1l-1.76.4-2.73.63c-5.65 1.3-6.92 6.5-6.22 10.94a20.84 20.84 0 0 1-2.9 15 19.22 19.22 0 0 0-3.28 9.18 17.5 17.5 0 0 0 1.36 6.72c2.1 5.72 6.83 8.77 11.85 12l.14.09c5.3 3.42 11.57 4.76 19.14 4.11 6-.51 10.42-3.45 12.89-8.5a86.59 86.59 0 0 0 4.24-10.13c1.63-4.77-.6-8.59-2.76-10.95a136 136 0 0 1-11.42-15.13l-1.26-1.85a73.35 73.35 0 0 0-4.79-6l-1.48-1.73c-3.08-3.67-7.46-4.47-10.92-4.76zM299.8 311.48a5.42 5.42 0 0 1-3.57-1.46c-3.16-2.74-5.16-6.54-6.1-11.63-.78-4.23-.11-5.44 3.75-6.81a.53.53 0 0 1 .25 0 .41.41 0 0 1 .19 0l.62.14a24 24 0 0 1 1.22.27c4.62 1.1 11.1 6.81 10.34 12.91a6.93 6.93 0 0 1-3.66 5.69 6.09 6.09 0 0 1-3.04.89zm-5.67-19.08c-3.42 1.21-3.86 2-3.16 5.83.9 4.89 2.81 8.54 5.82 11.14a4.45 4.45 0 0 0 5.63.47 6.11 6.11 0 0 0 3.24-5c.67-5.46-5.32-11-9.69-12-.4-.1-.81-.19-1.21-.27l-.62-.14z"/>
      <path class="cls-1" d="M178 160.2a12.87 12.87 0 0 1-8.33-3.28 60.56 60.56 0 0 0-9.89-6.31 43.87 43.87 0 0 1-17.49-16.1c-2.24-3.68-2.61-6.74-1.14-9.37a17.92 17.92 0 0 1 15.15-9.45 26.76 26.76 0 0 1 9.94 1.71 23.37 23.37 0 0 0 20.29-2.23l.31-.18c4.86-2.92 9.89-5.95 15.73-7a.54.54 0 0 1 .18 0h.06c5.56-.45 10.18.58 14.12 3.16l.31.2a76 76 0 0 1 9.88 7.26 16.23 16.23 0 0 1 4.19 6.85c1.42 4.44.68 9.21-2.22 14.16a45.21 45.21 0 0 1-12.08 13 26.92 26.92 0 0 1-17.85 6 68.22 68.22 0 0 0-18 1.23 13.71 13.71 0 0 1-3.16.35zm-20.65-43.7h-1a16.88 16.88 0 0 0-14.47 9c-1.31 2.33-.94 5.12 1.13 8.5a43 43 0 0 0 17.16 15.8 61 61 0 0 1 10 6.41c3.43 2.81 6.74 3.65 10.72 2.72a69.16 69.16 0 0 1 18.26-1.25c6.19.24 11.86-1.66 17.31-5.81a44.43 44.43 0 0 0 11.85-12.79c2.78-4.73 3.5-9.27 2.15-13.47a15.28 15.28 0 0 0-4-6.48 74.1 74.1 0 0 0-9.77-7.17l-.3-.2c-3.79-2.48-8.23-3.47-13.59-3h-.16c-5.68 1.06-10.65 4-15.45 6.93l-.3.18a24.2 24.2 0 0 1-21 2.31 27.86 27.86 0 0 0-8.56-1.68zM111.27 342.19c-.38 0-.74 0-1.1-.05-5.53-.59-10.11-3.42-14-8.67-2-2.68-2.19-7.41.68-10.18a8 8 0 0 0 .85-1 8.77 8.77 0 0 1 1-1.2c3.8-3.51 5-8.06 3.73-14.3a4.42 4.42 0 0 1 2.48-4.55.49.49 0 0 1 .29 0 .45.45 0 0 1 .38.09c.33.3.7.57 1.06.85a9 9 0 0 1 2.23 2.13 83.9 83.9 0 0 0 11.37 14c4.26 4.26 5.33 8.8 3.25 13.89-2.57 6.3-7.8 8.99-12.22 8.99zm-6.1-39.19a3.57 3.57 0 0 0-1.89 3.56c1.32 6.56 0 11.36-4 15.1a8.22 8.22 0 0 0-.91 1.08 8.29 8.29 0 0 1-.94 1.13 7.18 7.18 0 0 0-.58 9.06c3.75 5.05 8.13 7.78 13.4 8.33 4.32.46 9.84-2 12.47-8.44 1.93-4.73.92-9-3.07-13a85.11 85.11 0 0 1-11.49-14.17 8.07 8.07 0 0 0-2-1.91c-.35-.19-.68-.44-.99-.74zM378.35 105.75a4.47 4.47 0 0 1-1.43-.26l-.41-.14a32 32 0 0 1-4.33-1.73c-5.53-2.86-8-7.18-7.34-12.84.41-3.5 1.34-6.9 5.36-8.12a.45.45 0 0 1 .23 0h.1c.29 0 .59 0 .89-.05a5.59 5.59 0 0 1 2.08.1c5 1.51 8.36 4.27 9.83 8s.93 8.3-1.62 12.79a3.86 3.86 0 0 1-3.36 2.25zm-7.92-22.27c-3.71 1.14-4.4 4.41-4.75 7.39-.61 5.28 1.71 9.32 6.89 12a31.38 31.38 0 0 0 4.22 1.67l.41.15c1.6.55 2.83 0 3.77-1.64 2.42-4.26 3-8.54 1.58-12.06s-4.6-6-9.3-7.48a4.85 4.85 0 0 0-1.76-.06h-1zM22 328.6a17.16 17.16 0 0 1-2.86-.24 7.2 7.2 0 0 1-5.07-2.88c-1.1-1.66-1.36-4-.73-6.65a21.44 21.44 0 0 1 5.36-9.58c2.16-2.38 5.08-3.85 9.21-4.63a.59.59 0 0 1 .19 0h.15l1 .13 2.24.28a22.84 22.84 0 0 1 9.79 3.5c2.62 1.73 3.2 4.62 1.52 7.53a24.66 24.66 0 0 1-11.45 10.27A22.69 22.69 0 0 1 22 328.6zm6.1-23.15c-4 .75-6.69 2.1-8.74 4.36a20.7 20.7 0 0 0-5.17 9.2c-.57 2.46-.35 4.53.62 6a6.38 6.38 0 0 0 4.5 2.52c3.67.61 7.4 0 11.76-2a24 24 0 0 0 11.06-9.93c1.45-2.52 1-4.91-1.26-6.39a22.06 22.06 0 0 0-9.43-3.37l-2.23-.28-1-.13zM245.79 373.61a10.09 10.09 0 0 1-6.26-2A9.59 9.59 0 0 1 236 364a19 19 0 0 1 3-10.21 45 45 0 0 1 8.64-10.71c5.37-4.8 10.42-7.62 15.9-8.86 1.44-.33 2.92-.54 4.35-.75.67-.09 1.33-.19 2-.3a.47.47 0 0 1 .17 0 .29.29 0 0 1 .13 0l1.84.13c1.36.1 2.71.2 4.07.27 1.9.11 3.15.59 3.82 1.47.84 1.09.66 2.6.38 3.93a46.51 46.51 0 0 1-7 16.27c-4.26 6.32-10.15 10.64-17.69 15.18a24.06 24.06 0 0 1-7.25 2.9 13.1 13.1 0 0 1-2.57.29zM270.05 334l-2 .3c-1.42.21-2.89.42-4.3.74-5.33 1.21-10.26 4-15.51 8.67a44 44 0 0 0-8.48 10.5 18.14 18.14 0 0 0-2.9 9.75 8.8 8.8 0 0 0 3.22 6.92 9.82 9.82 0 0 0 8.17 1.59 23 23 0 0 0 7-2.79c7.44-4.48 13.25-8.74 17.42-14.93a45.55 45.55 0 0 0 6.83-16c.34-1.59.27-2.59-.22-3.24s-1.56-1-3.19-1.13c-1.37-.07-2.73-.17-4.09-.27l-1.83-.13zM301.1 87.15c-3.54 0-5.78-1.3-6.82-3.94-1.21-3.1-.57-6.21 1.88-9a17.69 17.69 0 0 1 10-5.85.4.4 0 0 1 .19 0h.12a12 12 0 0 1 9.68 5.52c2.42 3.66.59 7.34-2.3 9.35A22.4 22.4 0 0 1 302 87.12zm5.27-18a16.76 16.76 0 0 0-9.55 5.57c-2.26 2.57-2.84 5.3-1.73 8.12 1 2.51 3.18 3.58 6.88 3.37a21.51 21.51 0 0 0 11.43-3.73c2.55-1.79 4.19-5 2.08-8.19a11.05 11.05 0 0 0-9-5.14zM59 89.82a24.45 24.45 0 0 1-3.91-.29 4.5 4.5 0 0 1-3.62-2.41 5 5 0 0 1 .66-4.68A11.47 11.47 0 0 1 53.17 81C58.2 75.2 64.6 69 74 66.74h3.59c2.38.09 5 1.74 5.23 4.06a14.24 14.24 0 0 1-.65 6.06 15.61 15.61 0 0 1-7 8.23 33.16 33.16 0 0 1-12 4.46 33.16 33.16 0 0 1-4.17.27zm15.19-22.25c-9.16 2.21-15.44 8.29-20.38 14a11 11 0 0 0-1 1.37 4.15 4.15 0 0 0-.61 3.88 3.7 3.7 0 0 0 3 1.92 27.88 27.88 0 0 0 7.81 0 32.5 32.5 0 0 0 11.7-4.36 14.74 14.74 0 0 0 6.65-7.79 13.33 13.33 0 0 0 .6-5.69c-.14-1.84-2.44-3.21-4.42-3.28h-3.35z"/>
      <path class="cls-1" d="M250.32 363.89a4.79 4.79 0 0 1-3.34-1.21 5 5 0 0 1-1.27-4.87 14.11 14.11 0 0 1 1.89-4.81c4-6.05 8.7-9.59 14.51-10.82a.31.31 0 0 1 .19 0h.11c2.54 0 4.31.73 5.28 2.1s1 3.24.21 5.6c-1.32 3.82-4.25 6.35-7.08 8.8l-.4.34a21.08 21.08 0 0 1-8.1 4.6 7.56 7.56 0 0 1-2 .27zm12-20.9c-5.58 1.18-10.15 4.6-14 10.45a13.13 13.13 0 0 0-1.78 4.53 4.21 4.21 0 0 0 1 4.08 4.67 4.67 0 0 0 4.53.72 20.13 20.13 0 0 0 7.77-4.42l.41-.35c2.74-2.37 5.58-4.82 6.83-8.43.71-2.05.67-3.72-.11-4.83s-2.35-1.74-4.57-1.74zM155.88 88.4h-1.22a18.28 18.28 0 0 1-14.8-7.92c-2.18-3.08-2.19-6.17 0-9.45 2-3.09 5.12-4.53 8.38-5.85 4.86-2 9.22-3.86 13.19-6.85a36.5 36.5 0 0 1 4.91-2.95c.75-.39 1.5-.79 2.24-1.21a.42.42 0 0 1 .31 0h.11c.46.05.93.06 1.4.07a9.13 9.13 0 0 1 3.18.43c3.85 1.5 5.94 4.74 6.41 9.89.38 4.18-.91 8.22-3.94 12.33-5.82 7.8-12.26 11.51-20.17 11.51zm13-33.48c-.71.41-1.44.8-2.18 1.19a35.09 35.09 0 0 0-4.79 2.89c-4 3.05-8.64 5-13.38 7-3.13 1.27-6.09 2.64-8 5.52s-1.94 5.74 0 8.5a17.49 17.49 0 0 0 14.15 7.56c8.17.39 14.73-3.19 20.66-11.22 2.95-4 4.15-7.73 3.78-11.76-.44-4.86-2.3-7.78-5.87-9.17a8.52 8.52 0 0 0-2.88-.37c-.49 0-1 0-1.47-.07zM317.15 377.76a14.19 14.19 0 0 1-2.41-.21 12.58 12.58 0 0 1-8.6-5.38c-1.63-2.55-2.11-4.79-1.51-7.05a12.42 12.42 0 0 1 8.24-9c1.62-.57 3.29-1 4.92-1.46L320 354a.34.34 0 0 1 .22 0h1.24a14 14 0 0 1 2.59.06l.31.05c2.88.43 5.36.8 4.94 5.48a83.07 83.07 0 0 1-1.06 8.4c-.53 2.69-1.25 5.47-3.76 7.43a12 12 0 0 1-7.33 2.34zm3.09-22.93l-2.23.61c-1.61.44-3.27.89-4.86 1.44a11.57 11.57 0 0 0-7.69 8.46c-.54 2-.1 4 1.4 6.37a12.42 12.42 0 0 0 17.11 3c2.28-1.78 2.94-4.29 3.46-6.92a82.08 82.08 0 0 0 1-8.24c.35-4-1.27-4.2-4.21-4.64l-.31-.05a12.34 12.34 0 0 0-2.44-.05h-1.17zM97.77 112.52c-3.75 0-7.09-1.56-10.2-3.17-1.06-.56-2.11-1.16-3.12-1.74-1.5-.86-3.06-1.75-4.64-2.48a9.46 9.46 0 0 0-6.06-.92 22.6 22.6 0 0 0-6.07 2.45c-.58.3-1.16.61-1.75.9a21.29 21.29 0 0 1-11.25 2c-1.72-.14-3.44-.38-5.12-.62-1.47-.2-3-.41-4.48-.55-2-.19-4-.32-5.91-.44s-3.81-.25-5.71-.42c-3.73-.34-7-2.94-7.72-6a14.43 14.43 0 0 1 .18-6.3c.85-3.86 2.72-7.3 4.52-10.63a24.57 24.57 0 0 1 12.25-11.14 79.12 79.12 0 0 0 16.87-9.29 58.41 58.41 0 0 1 19.72-10.06c2.8-.79 5.66-1.54 8.42-2.27l3.83-1a.38.38 0 0 1 .21 0 .49.49 0 0 1 .17 0c3.57.58 5.58 1.59 6 5.28a33.51 33.51 0 0 1-.19 8.46c-.72 4.9-1.72 9.67-2.63 13.68a12.69 12.69 0 0 0 3.57 12.48c2.63 2.66 5.18 5.27 7.55 8 1.85 2.13 2.55 4.17 2.14 6.25-.93 4.63-5.48 7.13-9.33 7.48-.42.03-.84.05-1.25.05zm-22.35-9.33a11.08 11.08 0 0 1 4.74 1.17c1.62.74 3.19 1.64 4.71 2.51 1 .58 2 1.18 3.09 1.72 3.35 1.74 7 3.4 11 3 3.54-.33 7.74-2.6 8.57-6.81.36-1.8-.28-3.6-1.94-5.52-2.35-2.7-4.9-5.3-7.51-8A13.47 13.47 0 0 1 94.28 78c.89-4 1.9-8.74 2.61-13.64a32.69 32.69 0 0 0 .18-8.24c-.31-2.86-1.54-3.92-5.28-4.53l-3.82 1c-2.76.73-5.61 1.48-8.4 2.27a57.46 57.46 0 0 0-19.45 9.92 79.71 79.71 0 0 1-17 9.39 23.43 23.43 0 0 0-11.8 10.67c-1.82 3.36-3.66 6.75-4.48 10.49a13.58 13.58 0 0 0-.18 5.94c.6 2.75 3.6 5 7 5.36 1.9.18 3.83.3 5.7.42s4 .25 5.93.44c1.51.14 3 .35 4.52.56 1.66.23 3.38.47 5.07.61a20.17 20.17 0 0 0 10.81-1.94c.58-.28 1.15-.58 1.73-.88a23.3 23.3 0 0 1 6.29-2.54 9.64 9.64 0 0 1 1.71-.11zM226.16 66.8a7 7 0 0 1-3.12-.91 25 25 0 0 1-10.94-11.43 7.36 7.36 0 0 1-.44-4.3c.33-2 1.78-3.48 4.31-4.22a.55.55 0 0 1 .22 0h.07c5.34-.47 9.4 1.52 12 5.91a14.28 14.28 0 0 1 1.89 10.09c-.4 2.4-1.22 3.88-2.5 4.53a3.38 3.38 0 0 1-1.49.33zm-10-20c-2.21.65-3.41 1.81-3.7 3.54a6.62 6.62 0 0 0 .37 3.78 24.1 24.1 0 0 0 10.57 11c1.64.84 2.95 1 3.88.56s1.69-1.82 2-3.91a13.49 13.49 0 0 0-1.78-9.51c-2.5-4.15-6.17-6-11.24-5.5z"/>
      <path class="cls-1" d="M158.07 98.39a13.59 13.59 0 0 1-5.43-1.19 50.55 50.55 0 0 1-18.21-13.29c-5.41-6.24-5.62-12.09-.64-18.41a37.57 37.57 0 0 1 7-7c2.25-1.66 4.66-3.17 7-4.63 2.06-1.29 4.19-2.63 6.19-4.06 3.69-2.64 7.1-4.88 11.44-5.54h.17a.45.45 0 0 1 .2 0c.74.19 1.49.36 2.24.53a39.19 39.19 0 0 1 4.97 1.39c5.84 2.2 10 6.88 12.25 13.92 2.57 7.93 1.75 15-2.46 21a50.66 50.66 0 0 1-17.28 15.21 15.19 15.19 0 0 1-7.44 2.07zm7.53-53.26c-4.15.63-7.47 2.81-11.07 5.39-2 1.45-4.17 2.79-6.24 4.09-2.32 1.45-4.71 3-6.93 4.6a36.16 36.16 0 0 0-6.9 6.79c-4.75 6-4.56 11.36.61 17.32A49.71 49.71 0 0 0 153 96.42c4 1.73 7.84 1.45 12.09-.89a49.93 49.93 0 0 0 17-15c4-5.74 4.83-12.54 2.34-20.2-2.23-6.87-6.07-11.25-11.74-13.38a37.74 37.74 0 0 0-4.82-1.33c-.77-.13-1.53-.3-2.27-.49zM235.61 83.21a13.3 13.3 0 0 1-4.34-.8 22 22 0 0 1-8.52-5.6c-5.05-5.29-9.23-9.78-13.26-14.52a26.29 26.29 0 0 1-6.06-11.15c-1.29-5.53.09-9.52 4.11-11.84a12.14 12.14 0 0 1 3.28-1.13c.49-.12 1-.24 1.47-.39a.6.6 0 0 1 .23 0h.09A25.62 25.62 0 0 1 230 43.55a24.93 24.93 0 0 1 7.63 11.65c1.85 5.39 3.37 10.8 4.49 14.92l.18.63c.55 2 1.18 4.28.77 6.26a7.54 7.54 0 0 1-3.53 5.24 8 8 0 0 1-3.93.96zM212.52 38.6c-.49.15-1 .27-1.5.39A11.65 11.65 0 0 0 208 40c-3.71 2.15-4.93 5.72-3.72 10.91a25.66 25.66 0 0 0 5.89 10.8c4 4.73 8.19 9.21 13.22 14.48a21.15 21.15 0 0 0 8.19 5.39c3 1 5.67 1 7.61-.1a6.62 6.62 0 0 0 3.11-4.68c.38-1.77-.2-3.85-.75-5.85l-.18-.64c-1.11-4.1-2.63-9.49-4.48-14.86a24.09 24.09 0 0 0-7.36-11.27 24.86 24.86 0 0 0-16.87-5.6zM60.23 133.31a9 9 0 0 1-8.34-5c-.38-.78-.82-1.52-1.3-2.31-.31-.5-.62-1-.9-1.53a9.72 9.72 0 0 0-6.4-5.09c-5.28-1.3-10.69-.64-15.76.27-2 .36-4.07.94-6.05 1.5-1.55.44-3.14.89-4.75 1.24a15.74 15.74 0 0 1-5.16.22 4.78 4.78 0 0 1-3.33-2 6.73 6.73 0 0 1-1.09-5.25c.44-2.19.84-4.39 1.25-6.58.19-1.07.39-2.14.59-3.2 1.41-7.51 3.52-12.9 6.84-17.51a156.55 156.55 0 0 0 8.91-13.6c3.45-6 8.54-9.33 15.57-10.26A35.91 35.91 0 0 0 54.9 59a184.71 184.71 0 0 1 16.19-9.23c9.42-4.7 16.22-9 22.07-13.79l.52-.44c2.09-1.74 4.26-3.54 7.14-4.25a.8.8 0 0 1 .31 0 1.06 1.06 0 0 1 .35 0 7.94 7.94 0 0 1 4.77 4.1 32.33 32.33 0 0 1 2.91 21.13c-.68 3.89-1.56 7.8-2.41 11.58-.35 1.52-.69 3-1 4.58a14.79 14.79 0 0 0 2.93 13.12c1.61 1.95 3.43 3.8 5.2 5.59 1 1.05 2.07 2.1 3.08 3.19 4.35 4.67 5.13 9.66 2.34 14.83a37.06 37.06 0 0 1-12 13.4 14.87 14.87 0 0 1-13.83 1.88c-1.61-.57-3.21-1.25-4.75-1.9-1.08-.46-2.15-.92-3.24-1.34-3.63-1.41-6.61-1.06-9.11 1.09a31.88 31.88 0 0 0-3.38 3.56 21.56 21.56 0 0 1-7.84 6.19 11.94 11.94 0 0 1-4.92 1.02zM36.89 117a28.29 28.29 0 0 1 6.8.78 11.44 11.44 0 0 1 7.48 5.91c.28.5.58 1 .87 1.48.48.79 1 1.6 1.38 2.45 2 4.27 7.18 4.79 11 3.11a19.89 19.89 0 0 0 7.2-5.73 33.4 33.4 0 0 1 3.57-3.75c3-2.56 6.62-3 10.84-1.38 1.1.43 2.19.89 3.28 1.35 1.52.65 3.09 1.31 4.66 1.87a13.07 13.07 0 0 0 12.31-1.69 35.42 35.42 0 0 0 11.51-12.8c2.44-4.52 1.75-8.73-2.1-12.87-1-1.07-2-2.11-3-3.15-1.8-1.81-3.65-3.69-5.3-5.71a16.37 16.37 0 0 1-3.28-14.55c.33-1.53.67-3.07 1-4.6.85-3.76 1.72-7.65 2.4-11.49a30.7 30.7 0 0 0-2.74-20 6.32 6.32 0 0 0-3.64-3.22c-2.45.63-4.34 2.21-6.34 3.88l-.53.44c-5.95 4.92-12.85 9.24-22.39 14a181 181 0 0 0-16 9.13 37.61 37.61 0 0 1-15.28 5.5c-6.56.86-11.11 3.85-14.31 9.42a160.09 160.09 0 0 1-9 13.75c-3.16 4.39-5.18 9.58-6.55 16.82-.2 1.07-.39 2.13-.59 3.19-.4 2.21-.81 4.42-1.26 6.62a5 5 0 0 0 .8 3.91 3.12 3.12 0 0 0 2.16 1.35 13.94 13.94 0 0 0 4.59-.19c1.56-.34 3.13-.79 4.66-1.22 2-.57 4.1-1.16 6.21-1.54a55.68 55.68 0 0 1 9.59-1.07zM161.57 138.19a8 8 0 0 1-4.47-1.52 5.28 5.28 0 0 1-2.82-4.66c.1-2.1 1.86-2.72 3.27-3.22a.53.53 0 0 1 .25 0 .27.27 0 0 1 .12 0 11 11 0 0 1 8.25 3.19 3.1 3.1 0 0 1 1.21 2.61 3.64 3.64 0 0 1-2.07 2.56 7.42 7.42 0 0 1-3.74 1.04zm-3.73-8.6c-1.41.5-2.63.93-2.7 2.47s.67 2.73 2.44 3.9a6.43 6.43 0 0 0 7.31.42 2.88 2.88 0 0 0 1.65-1.92 2.29 2.29 0 0 0-.94-1.89 10.15 10.15 0 0 0-7.63-3z"/>
      <path class="cls-1" d="M239.53 92.05a17.24 17.24 0 0 1-5.64-1c-4.74-1.62-9-4.44-13.78-9.15a155.69 155.69 0 0 1-15.78-18.8 42 42 0 0 1-6.37-12c-2.17-6.76-2.26-13.66-2.07-19.52 0-1.13.11-3 2.12-3.65a.37.37 0 0 1 .23 0h1.31a10.94 10.94 0 0 1 2.74.08 130.87 130.87 0 0 1 19.06 4.83A38 38 0 0 1 242.11 50l.75 1.3c3.29 5.71 6.68 11.62 11 16.82 4.1 4.89 4.49 9.42 1.25 14.69a19.58 19.58 0 0 1-4.77 5.2 17.87 17.87 0 0 1-10.81 4.04zm-41.29-63.24c-1.31.42-1.45 1.5-1.5 2.86-.19 5.79-.1 12.6 2 19.23A41.39 41.39 0 0 0 205 62.61a154.21 154.21 0 0 0 15.71 18.69c4.69 4.62 8.85 7.38 13.46 9 5.48 1.88 10.61.93 15.69-2.89a18.55 18.55 0 0 0 4.57-5c3.05-5 2.7-9.06-1.19-13.7-4.4-5.25-7.81-11.19-11.12-16.94l-.75-1.29a37.16 37.16 0 0 0-20.3-16.83 129.86 129.86 0 0 0-18.94-4.8 10.69 10.69 0 0 0-2.54-.06h-1.25zM359.81 36.14c-2.86 0-4.95-.69-6.38-2.11s-2.27-4-2.08-7.29a48.74 48.74 0 0 1 3.43-14.64c1-2.71 2.59-5.56 6.51-6.16a.29.29 0 0 1 .16 0 .33.33 0 0 1 .14 0c4.66.37 8.27 2.78 10.74 7.15a21 21 0 0 1 2.87 10.61c0 4.41-1.5 7.39-4.61 9.39a19.57 19.57 0 0 1-9.42 3c-.47.03-.92.05-1.36.05zm1.64-29.37c-3.47.54-4.86 3-5.84 5.62a48.36 48.36 0 0 0-3.37 14.39c-.18 3 .44 5.26 1.83 6.64s3.79 2 7.08 1.81a18.78 18.78 0 0 0 9-2.86c2.89-1.86 4.19-4.54 4.22-8.68a20.26 20.26 0 0 0-2.76-10.2c-2.35-4.16-5.64-6.36-10.07-6.72zM315.52 12h-.12a2.67 2.67 0 0 1-1.73-1.39A4.51 4.51 0 0 1 315 5.44a.42.42 0 0 1 .39-.11.48.48 0 0 1 .35.07c2.13 1.5 2.72 3.65 1.51 5.46a2.55 2.55 0 0 1-1.73 1.14zm-.15-5.79a3.64 3.64 0 0 0-.94 4 1.87 1.87 0 0 0 1.08.93 1.78 1.78 0 0 0 1-.77c.9-1.37.49-2.93-1.14-4.15zM186.16 237.75a7.81 7.81 0 0 1-2.64-.48 37.56 37.56 0 0 1-6.19-2.89c-1.67-1-3.33-2-4.94-3.07-2.24-1.43-4.56-2.91-6.93-4.18-3.57-1.92-7.38-3.58-11.06-5.19l-1.73-.75c-6.79-3-11.91-8.05-16-12.61a30 30 0 0 1-6.48-11.58c-1.91-6.35-.73-11.43 3.6-15.53l1-1a38.9 38.9 0 0 1 3.71-3.29c5.92-4.44 10.94-8 17.27-9.68 1.16-.32 2.33-.59 3.51-.86l1.59-.38a.74.74 0 0 1 .21 0h4.79c1.85 0 4.45.34 5.67 3.12.27.61.54 1.21.82 1.81a51.13 51.13 0 0 1 2.83 7.23 33.13 33.13 0 0 0 9.31 15.74 22 22 0 0 1 6.24 11c.78 3.19 1.65 7 2.24 10.85.13.88.28 1.77.43 2.65.65 3.81 1.33 7.75.44 11.79a9.79 9.79 0 0 1-4.48 6.44 6.61 6.61 0 0 1-3.21.86zm-25-70.62l-1.6.38c-1.17.27-2.33.54-3.48.85-6.18 1.67-11.14 5.16-17 9.53a41.18 41.18 0 0 0-3.63 3.24l-1 1c-4.07 3.85-5.18 8.65-3.37 14.66a29.18 29.18 0 0 0 6.21 11.21c4.05 4.5 9.07 9.49 15.72 12.4l1.73.76c3.7 1.61 7.52 3.27 11.13 5.21 2.39 1.29 4.72 2.77 7 4.21 1.6 1 3.25 2.08 4.91 3.06a36.66 36.66 0 0 0 6.05 2.82 6.06 6.06 0 0 0 5.18-.3 9 9 0 0 0 4.06-5.89c.85-3.87.19-7.73-.45-11.46-.15-.89-.3-1.77-.43-2.66-.58-3.86-1.45-7.61-2.23-10.78a21.14 21.14 0 0 0-6-10.58 33.91 33.91 0 0 1-9.54-16.12 48.54 48.54 0 0 0-2.79-7.11l-.81-1.82c-.79-1.79-2.3-2.6-4.9-2.61h-4.79z"/>
      <path class="cls-1" d="M180.3 225a10.39 10.39 0 0 1-2.47-.33 6.36 6.36 0 0 0-.76-.14 5.7 5.7 0 0 1-1.33-.31l-1-.41c-8.76-3.56-17.81-7.25-26-12.42-3.93-2.47-8.37-5.51-11.3-10.19-4.11-6.56-2.94-13.33 3.12-18.1 3.91-3.07 8.71-6.36 14.69-7.42a.32.32 0 0 1 .17 0h.08c5.51-.32 9.68 2.1 12.41 7.17a55.94 55.94 0 0 1 2.69 6 19.9 19.9 0 0 0 6.06 8.71c6.88 5.24 9.84 12.39 9.05 21.88a6.06 6.06 0 0 1-2.23 4.7 5.28 5.28 0 0 1-3.18.86zm-24.91-48.48c-5.79 1-10.48 4.24-14.31 7.25-5.77 4.54-6.84 10.73-2.93 17 2.55 4.07 6.26 6.91 11 9.92 8.15 5.14 17.17 8.8 25.89 12.35l1 .41a4.71 4.71 0 0 0 1.12.26 7.94 7.94 0 0 1 .85.15c2.11.53 3.76.38 4.92-.44a5.3 5.3 0 0 0 1.88-4.08c.76-9.17-2.09-16.09-8.73-21.13a20.74 20.74 0 0 1-6.33-9.07 57.5 57.5 0 0 0-2.64-5.87c-2.57-4.76-6.48-7-11.62-6.72zM272.25 176.11a12.84 12.84 0 0 1-6.37-1.7c-4.2-2.4-6.79-6.49-7.91-12.52-.86-4.61.65-8.44 4.24-10.77a21.23 21.23 0 0 1 4.37-2c.66-.25 1.33-.5 2-.77a.42.42 0 0 1 .27 0h.05c6-.72 10.34 1.91 12.83 7.83a29.07 29.07 0 0 1 1.87 7.23 10.82 10.82 0 0 1-1.67 7.83 11.66 11.66 0 0 1-9.68 4.87zm-3.41-26.93c-.65.27-1.31.51-2 .75a21 21 0 0 0-4.2 1.9c-3.28 2.13-4.65 5.65-3.86 9.9 1.07 5.77 3.52 9.68 7.49 11.94 5.18 3 11.73 1.67 14.91-2.92a10 10 0 0 0 1.52-7.23 28.86 28.86 0 0 0-1.8-7c-2.33-5.53-6.35-8-11.95-7.31zM146.05 285.14a13.19 13.19 0 0 1-3.52-.51 20.46 20.46 0 0 1-10.61-7.49c-2.3-2.92-4.12-5.39-5.73-7.78-2.29-3.42-5.59-4.59-10.4-3.67-6.31 1.2-12 2.08-17.93.59S85 262.5 79.69 257c-2.88-3-5.49-5.61-8.35-8.12a38.36 38.36 0 0 0-8.36-5.1c-1.45-.72-2.94-1.47-4.37-2.29A34.73 34.73 0 0 1 51 235.7c-3.45-3.6-5.39-8.26-7.08-12.73a22 22 0 0 1-1.41-12.46c1-4.8 4.27-7.93 9.47-9.07a96.32 96.32 0 0 1 12.49-2c4.88-.42 8.89-2.66 12.6-7l.38-.44c2.83-3.35 5.77-6.81 10.4-8.09a.41.41 0 0 1 .22 0h.05a11.16 11.16 0 0 1 8.48 2.53c.69.55 1.39 1.07 2.1 1.59 1 .74 2 1.5 3 2.32l1.67 1.41a57.39 57.39 0 0 1 6.09 5.59c4.83 5.39 8.16 11.71 10.77 17.18a47.1 47.1 0 0 1 4.27 17.93c.12 2 .19 4 .27 5.93.14 3.47.28 7.06.62 10.57.41 4.24 2.74 6.81 6.93 7.64 4.55.9 9 1.91 13 4.23 6.56 3.76 9.61 8.71 9.34 15.12-.14 3.48-1.38 6.16-3.57 7.74a8.42 8.42 0 0 1-5.04 1.45zm-27.28-20.61a9.15 9.15 0 0 1 8.13 4.35c1.59 2.38 3.4 4.83 5.69 7.73a19.6 19.6 0 0 0 10.17 7.2c3.08.87 5.87.56 7.84-.87s3.09-3.88 3.22-7.09c.26-6.16-2.57-10.72-8.91-14.35-3.95-2.26-8.29-3.25-12.77-4.14s-7.16-3.73-7.61-8.39c-.34-3.53-.48-7.13-.62-10.62-.08-2-.15-3.94-.27-5.91a46.13 46.13 0 0 0-4.19-17.62c-2.58-5.41-5.87-11.66-10.63-17a58 58 0 0 0-6-5.51l-1.68-1.41c-.94-.81-2-1.56-3-2.29-.71-.52-1.42-1-2.12-1.6a10.15 10.15 0 0 0-7.85-2.36h-.15c-4.38 1.21-7.22 4.56-10 7.81l-.37.44c-3.87 4.56-8.06 6.88-13.17 7.32a98.42 98.42 0 0 0-12.39 2c-4.85 1.06-7.9 4-8.82 8.41a21.22 21.22 0 0 0 1.37 12c1.66 4.38 3.57 9 6.91 12.44a33.24 33.24 0 0 0 7.45 5.68c1.4.82 2.88 1.56 4.32 2.27a39.21 39.21 0 0 1 8.54 5.22c2.88 2.53 5.51 5.19 8.4 8.17 5.2 5.35 11.9 7.58 17.77 9s11.35.58 17.56-.61a17.06 17.06 0 0 1 3.18-.27z"/>
      <path class="cls-1" d="M159.44 204.67c-5.79 0-10.5-1.9-14-5.65-2.72-2.89-2.73-6.36 0-9.53a14 14 0 0 1 7.78-4.42h.29a6.67 6.67 0 0 1 7.07 4.81 75.44 75.44 0 0 1 2.29 10.86 3.42 3.42 0 0 1-.77 2.77 3.25 3.25 0 0 1-2.45 1.17zm-6.09-18.77A13.2 13.2 0 0 0 146 190c-2.41 2.84-2.4 5.82 0 8.4 3.36 3.57 7.87 5.38 13.41 5.38h.13a2.44 2.44 0 0 0 1.82-.87 2.57 2.57 0 0 0 .57-2.09 74.13 74.13 0 0 0-2.26-10.73 5.77 5.77 0 0 0-6.23-4.22zM244.15 381a24.07 24.07 0 0 1-9.83-2.17c-2.67-1.18-6.37-3.27-7.58-7.67-.77-2.77-.19-5.49.55-8a45.09 45.09 0 0 1 8.52-15.61c6.35-7.9 12.62-13.08 19.73-16.3 2.7-1.22 5.54-2.21 8.29-3.17l2.78-1c6.79-2.44 9-5.53 8.77-12.23a49.35 49.35 0 0 0-1.21-9.42c-2-8.66-5.49-14-11.19-17.41-4.84-2.86-9.14-5.53-12.78-9.14-1.11-1.1-2.23-2.18-3.35-3.27a109.82 109.82 0 0 1-10.71-11.37c-5-6.4-11.13-13.76-18.9-19.8a18.06 18.06 0 0 1-6.63-10c-.49-2-.81-4.14-1.12-6.16-.18-1.16-.36-2.32-.57-3.47l-.19-1.05a60.43 60.43 0 0 1-1.44-13.63c.26-5.72 3.55-10.27 8.37-11.58 1.17-.32 2.37-.6 3.52-.86l1.61-.38a1 1 0 0 1 .3 0h.15c.74 0 1.48.06 2.23.08a38.34 38.34 0 0 1 5 .37c8.95 1.5 15 6.4 18 14.57 2.43 6.58 6.1 11.25 11.22 14.29 2.37 1.4 4.75 2.89 7 4.32 3.81 2.37 7.74 4.83 11.74 7a50 50 0 0 0 18.61 5.54 54.42 54.42 0 0 1 10.76 2.29c3 1 6 2.12 8.85 3.25 1.86.73 3.79 1.49 5.7 2.18 2.76 1 5.84 2.42 7.74 5.48A129.78 129.78 0 0 1 338.27 276a62.75 62.75 0 0 1 5 27.71 27.07 27.07 0 0 1-3.2 11.78c-3.25 5.92-8.54 10.06-16.16 12.65l-5.82 2c-6.46 2.19-13.14 4.45-19.65 6.84-5.47 2-9.4 4.89-12 8.83-2.73 4.12-5.13 8.36-7.12 12-2.28 4.14-5 8.37-9.49 11.3q-1.89 1.23-3.77 2.51c-2.95 2-6 4-9.15 5.83a25.35 25.35 0 0 1-12.76 3.55zM221.1 199l-1.53.36c-1.14.27-2.32.54-3.46.85-4.16 1.13-6.89 5-7.12 10a59.48 59.48 0 0 0 1.41 13.25l.19 1c.22 1.16.4 2.34.58 3.51.31 2 .62 4 1.1 6a16.25 16.25 0 0 0 6 9.07c7.92 6.16 14.15 13.62 19.2 20.11A110.41 110.41 0 0 0 248 274.41q1.69 1.63 3.36 3.28c3.51 3.48 7.72 6.08 12.46 8.89 7.94 4.7 10.64 12.8 12 18.48a50.42 50.42 0 0 1 1.25 9.75c.3 8.5-3.56 11.61-9.89 13.89l-2.79 1c-2.71.94-5.52 1.92-8.15 3.11-6.86 3.11-12.93 8.13-19.1 15.82a43.43 43.43 0 0 0-8.22 15 13 13 0 0 0-.54 7.08c.77 2.82 2.88 4.91 6.63 6.57 7 3.09 14.05 2.62 21-1.4 3.09-1.78 6.12-3.81 9.05-5.78 1.26-.84 2.52-1.69 3.79-2.52 4.16-2.72 6.75-6.75 8.93-10.69 2-3.64 4.43-7.92 7.19-12.09s7-7.35 12.84-9.49c6.53-2.39 13.22-4.66 19.69-6.85l5.81-2c7.2-2.45 12.18-6.33 15.22-11.86a25.36 25.36 0 0 0 3-11.05 60.92 60.92 0 0 0-4.85-27 127.74 127.74 0 0 0-9.95-19c-1.63-2.62-4.39-3.89-6.88-4.79-1.93-.69-3.87-1.45-5.74-2.19-2.85-1.12-5.8-2.27-8.75-3.21a52.57 52.57 0 0 0-10.36-2.21 51.76 51.76 0 0 1-19.25-5.74c-4-2.19-8-4.66-11.82-7-2.29-1.43-4.66-2.9-7-4.3-5.47-3.25-9.37-8.2-12-15.16-2.83-7.66-8.31-12.07-16.73-13.48a35.8 35.8 0 0 0-4.76-.35c-.76 0-1.52 0-2.28-.09zM100.22 259.31a18 18 0 0 1-3.57-.37 28.6 28.6 0 0 1-16.3-10 35.26 35.26 0 0 0-9.94-8.2c-1.3-.73-2.65-1.4-4-2.06-1.8-.9-3.66-1.83-5.41-2.9-6.75-4.1-10-9.48-10-16.44a5.87 5.87 0 0 1 3.73-5.9c3.76-1.66 7.24-.31 9.53.85 1.2.61 2.36 1.32 3.49 2a42.31 42.31 0 0 0 3.89 2.2 9.06 9.06 0 0 0 5.83 1.06 7.85 7.85 0 0 0 6-4.88c.6-1.42 1.1-2.91 1.58-4.35.36-1.06.72-2.12 1.11-3.17 1.25-3.3 3-6.89 7.44-7.82a.4.4 0 0 1 .19 0h.08a14.42 14.42 0 0 1 9.9 3.33c4.54 3.53 7.26 8.37 9.46 12.62a31.55 31.55 0 0 1 3.61 18.4 64.85 64.85 0 0 1-3 14.57c-2.54 7.24-7.31 11.06-13.62 11.06zm-41.84-45.79a8.05 8.05 0 0 0-3.29.71 5 5 0 0 0-3.23 5.12c0 6.65 3.15 11.79 9.62 15.72 1.72 1.05 3.57 2 5.35 2.87 1.32.66 2.68 1.34 4 2.07a36.37 36.37 0 0 1 10.17 8.4 27.68 27.68 0 0 0 15.82 9.69c7.72 1.58 13.33-1.92 16.24-10.13A64.29 64.29 0 0 0 116 233.6a30.67 30.67 0 0 0-3.53-17.92c-2.15-4.17-4.81-8.91-9.22-12.34a13.65 13.65 0 0 0-9.34-3.15h-.14c-4.06.84-5.59 4.06-6.81 7.29-.39 1-.75 2.09-1.1 3.14-.49 1.46-1 3-1.6 4.41a8.72 8.72 0 0 1-6.6 5.39 10 10 0 0 1-6.37-1.13c-1.37-.66-2.69-1.46-4-2.24-1.11-.68-2.25-1.38-3.42-2a12.24 12.24 0 0 0-5.49-1.53z"/>
      <path class="cls-1" d="M287.75 332a4.49 4.49 0 0 1-5-5.16A43.43 43.43 0 0 0 282 320a161.85 161.85 0 0 0-5.87-24 26.19 26.19 0 0 0-12.24-14.91 77.21 77.21 0 0 1-23-20.08c-1.17-1.55-2.2-3.23-3.2-4.86a47.11 47.11 0 0 0-3.83-5.65c-2.87-3.46-6.06-6.76-9.15-10l-3-3.12a19.43 19.43 0 0 1-4.59-7.51 40.26 40.26 0 0 1-2-14c.18-4.39 2.12-7.2 5.77-8.35a.45.45 0 0 1 .23 0h.09a15.13 15.13 0 0 1 7.15 1.23 23 23 0 0 1 9.74 9c4.37 7.08 9.53 12.25 15.76 15.78 4.83 2.74 8.3 7 11.65 11.09l1 1.25c4.57 5.56 9.29 11.31 12.78 17.81 3.13 5.8 8.22 8.53 15.55 8.31 2.57-.07 5.19-.2 7.72-.33 3.73-.2 7.59-.4 11.39-.4h.05a16.51 16.51 0 0 1 13.38 6.43 52.33 52.33 0 0 1 9 17.7 24.18 24.18 0 0 1 .48 13.06c-1.82 7-6.38 11.72-13.56 14.14-1.83.62-3.72 1.13-5.55 1.62s-3.93 1.05-5.84 1.71c-6.8 2.36-14.5 5-22.55 6.05a13.93 13.93 0 0 1-1.61.03zm-66.66-123.7c-3.31 1-5 3.52-5.15 7.56a39.42 39.42 0 0 0 2 13.73 18.68 18.68 0 0 0 4.4 7.19c1 1.05 2 2.08 3 3.12 3.1 3.21 6.3 6.52 9.19 10a50.07 50.07 0 0 1 3.91 5.74 55.65 55.65 0 0 0 3.15 4.79 76.07 76.07 0 0 0 22.72 19.86 27 27 0 0 1 12.61 15.38 162.64 162.64 0 0 1 5.91 24.15 44.67 44.67 0 0 1 .79 7 4.43 4.43 0 0 0 1.19 3.46c.89.78 2.36 1 4.49.75 8-1 15.62-3.66 22.38-6 1.94-.67 4-1.21 5.89-1.73s3.71-1 5.51-1.61c6.89-2.32 11.27-6.88 13-13.54a23.32 23.32 0 0 0-.47-12.61 51.44 51.44 0 0 0-8.85-17.41 15.68 15.68 0 0 0-12.76-6.06h-.08c-3.78 0-7.62.2-11.34.39-2.54.14-5.16.27-7.75.34-7.69.21-13-2.65-16.31-8.76-3.46-6.42-8.16-12.14-12.7-17.67l-1-1.25c-3.45-4.23-6.72-8.23-11.41-10.89-6.36-3.61-11.61-8.86-16.06-16.08a22.29 22.29 0 0 0-9.39-8.66 14.13 14.13 0 0 0-6.76-1.14zM96.35 247.94a5.78 5.78 0 0 1-1.56-.21 9.49 9.49 0 0 1-7.26-7.25 4.89 4.89 0 0 1 .75-4.43 22.75 22.75 0 0 1 3.72-3.74c1.73-1.37 3.55-2.67 5.31-3.94l2.23-1.61a.5.5 0 0 1 .35-.07h.11c2.65-.1 3.91 1.7 4.69 3.29 2.55 5.23 0 13.28-3.83 16.21a7.48 7.48 0 0 1-4.51 1.75zm3.59-20.41l-2.13 1.53c-1.75 1.26-3.56 2.56-5.27 3.92a21.83 21.83 0 0 0-3.59 3.6 4 4 0 0 0-.59 3.69 8.67 8.67 0 0 0 6.64 6.64c1.76.47 3.45 0 5.32-1.4 3.53-2.69 5.93-10.36 3.59-15.16-1-2.07-2.14-2.89-3.9-2.82zM254.82 312.19a4.12 4.12 0 0 1-1.33-.22c-1.87-.63-3.42-3.3-2.91-5s1.9-2.3 3.33-2.73a.37.37 0 0 1 .23 0 .67.67 0 0 1 .2 0l.52.12a8.3 8.3 0 0 1 1.16.31c2 .75 3.31 3.23 2.7 5a4.1 4.1 0 0 1-3.9 2.52zm-.68-7.14c-1.43.43-2.39.95-2.74 2.16s.92 3.47 2.37 4a3.33 3.33 0 0 0 4.15-1.78c.46-1.34-.67-3.37-2.2-3.94a8 8 0 0 0-1.05-.28z"/>
    </g>
  </g>
</svg>
